<svg width="257" height="239" viewBox="0 0 257 239" fill="none" xmlns="http://www.w3.org/2000/svg">
<path d="M103.22 74.4598V197.008V201.252C103.22 201.252 103.189 201.472 103.095 201.566L65.8163 238.969V37.9997C65.8163 37.6226 66.2861 37.4341 66.5367 37.6855L102.938 74.2081V74.1452L103.22 74.4283V74.4598ZM106.634 33.3795L137.365 2.54608C138.305 1.60316 137.647 0.0314615 136.332 0.0314615H1.47224C0.657758 0.0314615 0 0.691416 0 1.50862V32.3424C0 33.1596 0.657758 33.8196 1.47224 33.8196H105.569C105.945 33.8196 106.321 33.6624 106.603 33.3795H106.634ZM248.134 141.69C242.245 131.915 234.006 124.215 223.481 118.651C222.416 118.086 221.351 117.583 220.285 117.08C220.004 116.954 219.973 116.546 220.223 116.357C227.491 111.391 233.411 105.168 237.953 97.6557C243.843 87.8808 246.788 76.817 246.788 64.5275C246.788 52.2381 243.843 41.5515 237.953 31.745C232.064 21.9701 223.825 14.2381 213.3 8.54909C202.743 2.86011 190.557 0 176.711 0H158.73C158.73 0 158.51 0.0315536 158.416 0.125846L125.586 33.0653C125.336 33.3167 125.524 33.7881 125.9 33.7881H179.123C184.166 33.7881 189.116 35.014 193.565 37.3713C199.36 40.4515 203.839 44.6002 207.003 49.8178C210.167 55.0667 211.765 61.07 211.765 67.9219C211.765 74.7738 210.167 80.8402 207.003 86.1834C203.808 91.5267 199.36 95.7384 193.565 98.8187C187.769 101.899 181.159 103.439 173.672 103.439H170.101C170.101 103.439 169.882 103.47 169.819 103.564L166.185 107.148L138.618 134.807C138.368 135.058 138.556 135.53 138.931 135.53H181.159C188.646 135.53 195.287 137.07 201.051 140.15C206.846 143.23 211.326 147.379 214.49 152.597C217.654 157.846 219.252 163.849 219.252 170.701C219.252 177.553 217.654 183.619 214.49 188.962C211.326 194.305 206.846 198.517 201.051 201.597C195.256 204.677 188.646 206.217 181.159 206.217H123.143C123.143 206.217 122.924 206.249 122.83 206.343L91.0027 238.277C90.7521 238.529 90.9399 239 91.3159 239H186.923C200.77 239 212.955 236.266 223.512 230.797C234.069 225.328 242.276 217.658 248.166 207.758C254.055 197.857 257 186.888 257 174.818C257 162.749 254.055 151.496 248.166 141.69H248.134Z" fill="#181818"/>
</svg>
