<svg width="617" height="93" viewBox="0 0 617 93" fill="none" xmlns="http://www.w3.org/2000/svg">
<path d="M68.3436 0V43.4076L66.3637 40.6759C68.5188 36.5423 71.5711 33.254 75.541 30.8213C79.5108 28.3886 84.0167 27.1619 89.059 27.1619C94.1012 27.1619 98.7517 28.3164 102.763 30.6358C106.774 32.9551 109.898 36.13 112.126 40.1811C114.363 44.2322 115.477 48.8193 115.477 53.9424V91.763H102.453V55.9217C102.453 52.6952 101.732 49.8089 100.278 47.2422C98.8343 44.6754 96.8028 42.6757 94.2043 41.2326C91.6059 39.7894 88.6878 39.0576 85.4603 39.0576C82.2329 39.0576 79.3251 39.7791 76.7163 41.2326C74.1076 42.6757 72.066 44.6857 70.5708 47.2422C69.086 49.8089 68.3333 52.6952 68.3333 55.9217V91.763H55.31V0H68.3436Z" fill="#181818"/>
<path d="M128.263 28.3989H141.286V91.7733H128.263V28.3989Z" fill="#181818"/>
<path d="M167.704 28.3989V43.4076L165.724 40.6759C167.879 36.5423 170.931 33.254 174.901 30.8213C178.871 28.3886 183.377 27.1619 188.419 27.1619C193.462 27.1619 198.112 28.3164 202.123 30.6358C206.134 32.9551 209.259 36.13 211.486 40.1811C213.723 44.2322 214.837 48.8193 214.837 53.9424V91.763H201.814V55.9217C201.814 52.6952 201.092 49.8089 199.638 47.2422C198.194 44.6754 196.163 42.6757 193.565 41.2326C190.956 39.7894 188.048 39.0576 184.821 39.0576C181.593 39.0576 178.685 39.7791 176.077 41.2326C173.468 42.6757 171.426 44.6857 169.931 47.2422C168.446 49.8089 167.693 52.6952 167.693 55.9217V91.763H154.67V28.3989H167.704Z" fill="#181818"/>
<path d="M294.605 0H307.629V91.763H294.605V0ZM304.154 43.2117C306.639 38.2123 310.124 34.2849 314.64 31.4295C319.146 28.5742 324.333 27.1516 330.211 27.1516C336.088 27.1516 341.295 28.5948 346.09 31.4914C350.885 34.3879 354.649 38.3566 357.381 43.3972C360.114 48.4379 361.475 54.0249 361.475 60.1376C361.475 66.2504 360.114 71.8374 357.381 76.8781C354.649 81.9187 350.885 85.8668 346.09 88.7222C341.295 91.5775 335.995 93 330.211 93C324.426 93 319.146 91.5775 314.64 88.7222C310.134 85.8668 306.639 81.9497 304.154 76.94C301.669 71.9405 300.431 66.3328 300.431 60.1376C300.431 53.9425 301.669 48.2111 304.154 43.2117ZM310.299 70.8066C312.073 74.0331 314.496 76.5482 317.559 78.3727C320.621 80.1973 324.055 81.1044 327.849 81.1044C331.644 81.1044 335.067 80.1973 338.088 78.3727C341.11 76.5585 343.502 74.0331 345.286 70.8066C347.059 67.5802 347.956 64.0238 347.956 60.1376C347.956 56.2515 347.07 52.6952 345.286 49.4687C343.502 46.2423 341.089 43.7271 338.027 41.9025C334.964 40.0883 331.572 39.1709 327.849 39.1709C324.127 39.1709 320.611 40.078 317.559 41.9025C314.496 43.7168 312.083 46.2423 310.299 49.4687C308.515 52.6952 307.629 56.2515 307.629 60.1376C307.629 64.0238 308.515 67.5802 310.299 70.8066Z" fill="#181818"/>
<path d="M372.384 28.3989H385.407V43.5312L383.304 41.047C384.954 37.8206 387.15 35.0374 389.882 32.6768C392.615 30.3162 395.729 28.7082 399.245 27.8423C402.761 26.9764 406.381 26.997 410.103 27.9041V40.3048C405.638 39.0678 401.503 38.9441 397.698 39.9337C393.893 40.9233 390.893 42.8509 388.707 45.6959C386.511 48.5513 385.418 51.953 385.418 55.9216V91.763H372.394V28.3989H372.384Z" fill="#181818"/>
<path d="M417.909 61.3231C422.291 58.2204 427.869 56.3442 434.654 55.6845L446.935 54.3239C449.245 54.0765 450.987 53.4786 452.142 52.5302C453.297 51.5819 453.875 50.1079 453.875 48.1287C453.875 45.0775 452.699 42.6344 450.338 40.8099C447.977 38.9957 444.904 38.0783 441.099 38.0783C437.294 38.0783 433.943 39.0472 431.303 40.9954C428.653 42.9437 426.921 45.8506 426.096 49.7368L413.196 46.634C413.939 42.7478 415.599 39.3359 418.156 36.4084C420.713 33.4705 423.961 31.2027 427.89 29.5844C431.819 27.9763 436.222 27.1619 441.099 27.1619C448.791 27.1619 455.009 29.172 459.773 33.1716C464.526 37.1814 466.908 42.8612 466.908 50.2212V91.763H453.885V80.1045L455.122 80.4757C452.72 84.3618 449.492 87.4233 445.45 89.6499C441.398 91.8867 436.851 93 431.808 93C427.839 93 424.302 92.2784 421.198 90.825C418.094 89.3819 415.681 87.3099 413.939 84.6298C412.206 81.9394 411.33 78.8263 411.33 75.27C411.33 69.0645 413.516 64.4155 417.909 61.3231ZM427.148 80.2901C429.004 81.7333 431.509 82.4651 434.654 82.4651C438.212 82.4651 441.46 81.6198 444.388 79.919C447.327 78.2284 449.637 75.9916 451.338 73.2187C453.029 70.4458 453.885 67.5389 453.885 64.4774V59.8903L455.122 60.2613C454.545 61.4983 453.637 62.3951 452.39 62.9312C451.152 63.4672 449.245 63.8589 446.688 64.1063L434.654 65.5907C431.509 66.003 429.014 66.941 427.148 68.3842C425.292 69.8273 424.353 71.7962 424.353 74.2804C424.353 76.7647 425.281 78.847 427.148 80.2901Z" fill="#181818"/>
<path d="M492.707 28.3989V43.4076L490.727 40.6759C492.882 36.5423 495.935 33.254 499.905 30.8213C503.874 28.3886 508.38 27.1619 513.423 27.1619C518.465 27.1619 523.115 28.3164 527.126 30.6358C531.138 32.9551 534.262 36.13 536.489 40.1811C538.727 44.2322 539.84 48.8193 539.84 53.9424V91.763H526.817V55.9217C526.817 52.6952 526.095 49.8089 524.641 47.2422C523.198 44.6754 521.166 42.6757 518.568 41.2326C515.959 39.7894 513.051 39.0576 509.824 39.0576C506.596 39.0576 503.689 39.7791 501.08 41.2326C498.471 42.6757 496.43 44.6857 494.934 47.2422C493.45 49.8089 492.697 52.6952 492.697 55.9217V91.763H479.674V28.3989H492.707Z" fill="#181818"/>
<path d="M554.235 43.3972C556.968 38.3566 560.731 34.3879 565.526 31.4914C570.321 28.5948 575.611 27.1516 581.405 27.1516C587.2 27.1516 592.366 28.5742 596.914 31.4295C601.461 34.2849 604.977 38.2123 607.462 43.2117C609.947 48.2111 611.185 53.86 611.185 60.1376C611.185 66.4153 609.947 71.9405 607.462 76.94C604.977 81.9394 601.461 85.8668 596.914 88.7222C592.366 91.5775 587.2 93 581.405 93C575.611 93 570.321 91.5775 565.526 88.7222C560.731 85.8668 556.968 81.9187 554.235 76.8781C551.502 71.8374 550.141 66.2607 550.141 60.1376C550.141 54.0146 551.502 48.4379 554.235 43.3972ZM566.206 70.8066C567.98 74.0331 570.403 76.5482 573.466 78.3727C576.528 80.1973 579.962 81.1044 583.756 81.1044C587.551 81.1044 590.995 80.1973 594.057 78.3727C597.12 76.5585 599.533 74.0331 601.317 70.8066C603.09 67.5802 603.987 64.0238 603.987 60.1376C603.987 56.2515 603.1 52.6952 601.317 49.4687C599.533 46.2423 597.12 43.7271 594.057 41.9025C590.995 40.0883 587.561 39.1709 583.756 39.1709C579.951 39.1709 576.518 40.078 573.466 41.9025C570.403 43.7168 567.99 46.2423 566.206 49.4687C564.422 52.6952 563.536 56.2515 563.536 60.1376C563.536 64.0238 564.422 67.5802 566.206 70.8066ZM603.977 0H617V91.763H603.977V0Z" fill="#181818"/>
<path d="M240.646 0H227.623V91.763H240.646V0Z" fill="#181818"/>
<path d="M256.784 54.8393L281.211 28.3989H264.837L240.646 55.1176L269.549 91.763H286.047L256.784 54.8393Z" fill="#181818"/>
<path d="M13.518 7.81356V28.3989H0V39.9337H13.518V68.58C13.518 76.4348 15.4774 82.2693 19.406 86.0626C23.3347 89.8663 29.3462 91.763 37.4509 91.763H44.4007V80.2282H37.4509C33.5635 80.2282 30.769 79.3624 29.078 77.6203C27.3766 75.8885 26.5311 73.0744 26.5311 69.1882V3.7109L13.508 7.80324L13.518 7.81356Z" fill="#181818"/>
<path d="M44.4111 28.3989H26.5414L36.2959 39.9234H44.4111V28.3989Z" fill="#181818"/>
<path d="M141.286 11.0606H128.263V24.0798H141.286V11.0606Z" fill="#181818"/>
</svg>
