<svg width="134" height="36" viewBox="0 0 134 36" fill="none" xmlns="http://www.w3.org/2000/svg">
<path d="M115.983 28.6707C115.983 27.9038 116.595 27.3053 117.383 27.3053C118.172 27.3053 118.776 27.9038 118.776 28.6707C118.776 29.4377 118.172 30.0362 117.383 30.0362C116.595 30.0362 115.983 29.4269 115.983 28.6707ZM118.496 28.6707C118.496 28.0543 118.023 27.5705 117.383 27.5705C116.744 27.5705 116.271 28.0543 116.271 28.6707C116.271 29.2872 116.74 29.771 117.383 29.771C118.027 29.771 118.496 29.2908 118.496 28.6707ZM116.84 29.3839V27.9217H117.486C117.771 27.9217 117.966 28.0722 117.966 28.3016C117.966 28.4987 117.817 28.6421 117.59 28.66V28.6707C117.785 28.6815 117.86 28.7926 117.899 28.9718L117.984 29.3875H117.721L117.653 29.0363C117.618 28.875 117.561 28.8356 117.38 28.8356H117.096V29.3875H116.843L116.84 29.3839ZM117.092 28.6134H117.447C117.607 28.6134 117.71 28.5166 117.71 28.3697C117.71 28.2371 117.607 28.1511 117.447 28.1511H117.092V28.6134Z" fill="white"/>
<path d="M133.61 6.58715H126.117L130.782 0.64151C130.984 0.379888 130.799 0 130.473 0H119.97C119.849 0 119.735 0.0573412 119.661 0.150522L116.466 4.25046C116.264 4.51208 116.449 4.89198 116.775 4.89198H123.363L118.772 10.8376C118.57 11.0992 118.754 11.4791 119.081 11.4791H126.674V15.5683C126.674 15.898 127.086 16.0378 127.285 15.7798L133.916 7.22866C134.118 6.96703 133.933 6.58715 133.606 6.58715H133.61Z" fill="white"/>
<path d="M15.4098 30.0254H11.647V28.2585C10.5349 29.7028 9.00709 30.4268 7.05644 30.4268C5.10579 30.4268 3.38965 29.6993 2.03237 28.2442C0.678641 26.7892 0 24.9829 0 22.8218C0 20.6607 0.678641 18.8222 2.03237 17.3779C3.3861 15.9372 5.06316 15.2168 7.05644 15.2168C9.04973 15.2168 10.542 15.93 11.647 17.3564V9.23896H15.4098V30.0254ZM10.5989 25.8538C11.3806 25.0474 11.7714 24.0296 11.7714 22.7967C11.7714 21.5639 11.3806 20.5783 10.5989 19.7791C9.8172 18.9835 8.85431 18.5821 7.70311 18.5821C6.55191 18.5821 5.5748 18.9763 4.82155 19.7648C4.06829 20.5532 3.69166 21.5639 3.69166 22.7967C3.69166 24.0296 4.06829 25.0725 4.82155 25.8681C5.5748 26.6637 6.53414 27.0651 7.70311 27.0651C8.87208 27.0651 9.8172 26.6637 10.5989 25.8574V25.8538Z" fill="white"/>
<path d="M19.73 28.3379C18.291 26.9438 17.5732 25.1052 17.5732 22.8259C17.5732 20.5466 18.2661 18.8263 19.6482 17.382C21.0304 15.9413 22.8283 15.2209 25.0454 15.2209C27.2625 15.2209 29.1208 15.9234 30.4425 17.3283C31.7607 18.7331 32.4216 20.5 32.4216 22.6324C32.4216 23.2165 32.3932 23.6609 32.3399 23.9656H21.2471C21.375 24.9476 21.7908 25.7396 22.4872 26.3345C23.1871 26.933 24.1536 27.2305 25.3936 27.2305C27.0458 27.2305 28.2041 26.5961 28.865 25.3274L32.2262 26.3273C31.7572 27.4133 30.9222 28.3666 29.7248 29.1908C28.5274 30.0151 27.0635 30.4273 25.3367 30.4273C23.0414 30.4273 21.1725 29.7284 19.7335 28.3343L19.73 28.3379ZM28.7761 21.6002C28.6838 20.6935 28.3036 19.9337 27.632 19.3209C26.9605 18.708 26.09 18.4034 25.0134 18.4034C23.9368 18.4034 23.1125 18.7188 22.4303 19.3496C21.7446 19.9803 21.3502 20.7293 21.24 21.6002H28.7797H28.7761Z" fill="white"/>
<path d="M48.8018 15.6255L42.9037 30.0255H38.7004L32.8023 15.6255H36.8954L40.8216 25.8718L44.7371 15.6255H48.8018Z" fill="white"/>
<path d="M62.2355 28.1193V30.0223H50.1763V28.578L59.0377 17.7224H50.3433V15.8194H61.9762V17.3354L53.1432 28.1228H62.2391L62.2355 28.1193Z" fill="white"/>
<path d="M66.0623 28.2588C64.7086 26.8324 64.0299 25.0476 64.0299 22.9081C64.0299 20.7685 64.7086 19.016 66.0623 17.5968C67.416 16.1776 69.1109 15.4715 71.1397 15.4715C73.602 15.4715 75.4567 16.4392 76.7074 18.3781V15.8192H78.8712V30.0256H76.7074V27.4417C75.478 29.4164 73.6197 30.4019 71.1397 30.4019C69.1109 30.4019 67.416 29.6887 66.0623 28.2624V28.2588ZM75.2115 26.836C76.2455 25.7931 76.7607 24.4921 76.7607 22.9367C76.7607 21.3813 76.2419 20.0804 75.2044 19.0375C74.1669 17.9946 72.9162 17.4749 71.4559 17.4749C69.9139 17.4749 68.6454 17.9874 67.6576 19.0124C66.6699 20.0374 66.176 21.3455 66.176 22.9403C66.176 24.5351 66.6699 25.8217 67.6576 26.8539C68.6454 27.8861 69.9103 28.4021 71.4559 28.4021C73.0015 28.4021 74.1776 27.8825 75.2115 26.8396V26.836Z" fill="white"/>
<path d="M94.9277 17.5968C96.2814 19.0161 96.9601 20.7865 96.9601 22.9081C96.9601 25.0298 96.2814 26.8325 94.9277 28.2589C93.574 29.6852 91.8791 30.3984 89.8503 30.3984C88.6103 30.3984 87.5159 30.1368 86.5637 29.6136C85.6115 29.0903 84.8511 28.3664 84.2826 27.4381V36H82.1188V15.8157H84.2826V18.3745C85.4942 16.4393 87.3525 15.468 89.8503 15.468C91.8791 15.468 93.574 16.1776 94.9277 17.5933V17.5968ZM93.3288 26.8504C94.3165 25.8182 94.8104 24.5137 94.8104 22.9368C94.8104 21.3599 94.3165 20.0339 93.3288 19.0089C92.341 17.9839 91.0761 17.4714 89.5305 17.4714C87.9849 17.4714 86.8089 17.9911 85.7749 19.034C84.741 20.0769 84.2258 21.3778 84.2258 22.9332C84.2258 24.4886 84.741 25.7896 85.7749 26.8325C86.8089 27.8754 88.0596 28.395 89.5305 28.395C91.0726 28.395 92.341 27.879 93.3288 26.8468V26.8504Z" fill="white"/>
<path d="M111.858 17.5968C113.212 19.0161 113.891 20.7865 113.891 22.9081C113.891 25.0298 113.212 26.8325 111.858 28.2589C110.505 29.6852 108.81 30.3984 106.781 30.3984C105.541 30.3984 104.447 30.1368 103.494 29.6136C102.542 29.0903 101.782 28.3664 101.213 27.4381V36H99.0494V15.8157H101.213V18.3745C102.425 16.4393 104.283 15.468 106.781 15.468C108.81 15.468 110.505 16.1776 111.858 17.5933V17.5968ZM110.259 26.8504C111.247 25.8182 111.741 24.5137 111.741 22.9368C111.741 21.3599 111.247 20.0339 110.259 19.0089C109.272 17.9839 108.007 17.4714 106.461 17.4714C104.916 17.4714 103.739 17.9911 102.706 19.034C101.672 20.0769 101.156 21.3778 101.156 22.9332C101.156 24.4886 101.672 25.7896 102.706 26.8325C103.739 27.8754 104.99 28.395 106.461 28.395C108.003 28.395 109.272 27.879 110.259 26.8468V26.8504Z" fill="white"/>
</svg>
