<svg width="91" height="53" viewBox="0 0 91 53" fill="none" xmlns="http://www.w3.org/2000/svg">
<path d="M10.1199 37.7189V41.1737C10.1199 44.2922 7.91859 46.3407 4.92237 46.3407H3.17967V51.5688C3.17967 52.0885 2.81278 52.4554 2.29303 52.4554H0.856064C0.336311 52.4554 0 52.0885 0 51.5688V33.4386C0 32.9188 0.336311 32.5825 0.856064 32.5825H4.92237C7.91859 32.5825 10.1199 34.6004 10.1199 37.7189ZM4.92237 43.161C6.14532 43.161 6.94023 42.2744 6.94023 41.1737V37.7189C6.94023 36.6182 6.14532 35.7622 4.92237 35.7622H3.17967V43.161H4.92237Z" fill="white"/>
<path d="M10.6611 51.4159L14.3606 33.2857C14.4523 32.8577 14.7886 32.5825 15.2166 32.5825H18.3657C18.7938 32.5825 19.1301 32.8577 19.2218 33.2857L22.9212 51.4159C23.0435 52.0274 22.7072 52.4554 22.0651 52.4554H20.567C20.139 52.4554 19.8027 52.1497 19.711 51.7217L18.9466 47.7165H14.6052L13.8408 51.7217C13.7797 52.1497 13.4434 52.4554 12.9847 52.4554H11.5172C10.8752 52.4554 10.5389 52.0274 10.6611 51.4159ZM16.7759 36.4042L15.1555 44.6591H18.3963L16.7759 36.4042Z" fill="white"/>
<path d="M32.1456 51.8134L30.6169 46.3101C30.4946 46.3101 30.4029 46.3407 30.1583 46.3407H28.6908V51.5688C28.6908 52.0885 28.3239 52.4554 27.8042 52.4554H26.3672C25.8474 52.4554 25.5111 52.0885 25.5111 51.5688V33.4386C25.5111 32.9188 25.8474 32.5825 26.3672 32.5825H30.4335C33.4297 32.5825 35.631 34.6004 35.631 37.7189V41.1737C35.631 43.161 34.7138 44.7203 33.3074 45.5458L33.6437 45.9432C33.7355 46.0655 33.8578 46.3101 33.8883 46.4324L35.3253 51.3548C35.5087 51.9968 35.1724 52.4554 34.4692 52.4554H32.9711C32.5737 52.4554 32.2373 52.1803 32.1456 51.8134ZM28.6908 43.161H30.4335C31.6564 43.161 32.4514 42.2744 32.4514 41.1737V37.7189C32.4514 36.6182 31.6564 35.7622 30.4335 35.7622H28.6908V43.161Z" fill="white"/>
<path d="M45.0355 51.8134L43.5069 46.3101C43.3846 46.3101 43.2928 46.3407 43.0483 46.3407H41.5807V51.5688C41.5807 52.0885 41.2138 52.4554 40.6941 52.4554H39.2571C38.7374 52.4554 38.4011 52.0885 38.4011 51.5688V33.4386C38.4011 32.9188 38.7374 32.5825 39.2571 32.5825H43.3234C46.3196 32.5825 48.5209 34.6004 48.5209 37.7189V41.1737C48.5209 43.161 47.6037 44.7203 46.1973 45.5458L46.5337 45.9432C46.6254 46.0655 46.7477 46.3101 46.7782 46.4324L48.2152 51.3548C48.3987 51.9968 48.0623 52.4554 47.3591 52.4554H45.861C45.4636 52.4554 45.1273 52.1803 45.0355 51.8134ZM41.5807 43.161H43.3234C44.5464 43.161 45.3413 42.2744 45.3413 41.1737V37.7189C45.3413 36.6182 44.5464 35.7622 43.3234 35.7622H41.5807V43.161Z" fill="white"/>
<path d="M54.4706 51.5688C54.4706 52.0885 54.1038 52.4554 53.584 52.4554H52.147C51.6273 52.4554 51.291 52.0885 51.291 51.5688V33.4386C51.291 32.9188 51.6273 32.5825 52.147 32.5825H53.584C54.1038 32.5825 54.4706 32.9188 54.4706 33.4386V51.5688Z" fill="white"/>
<path d="M66.1061 50.1318V51.5688C66.1061 52.0885 65.7392 52.4554 65.2194 52.4554H58.7072C58.1875 52.4554 57.8512 52.0885 57.8512 51.5688V33.4386C57.8512 32.9188 58.1875 32.5825 58.7072 32.5825H60.1442C60.664 32.5825 61.0308 32.9188 61.0308 33.4386V49.2758H65.2194C65.7392 49.2758 66.1061 49.6121 66.1061 50.1318Z" fill="white"/>
<path d="M76.8463 50.1318V51.5688C76.8463 52.0885 76.4794 52.4554 75.9597 52.4554H69.4475C68.9277 52.4554 68.5914 52.0885 68.5914 51.5688V33.4386C68.5914 32.9188 68.9277 32.5825 69.4475 32.5825H70.8844C71.4042 32.5825 71.7711 32.9188 71.7711 33.4386V49.2758H75.9597C76.4794 49.2758 76.8463 49.6121 76.8463 50.1318Z" fill="white"/>
<path d="M78.7151 51.4159L82.4145 33.2857C82.5062 32.8577 82.8426 32.5825 83.2706 32.5825H86.4197C86.8477 32.5825 87.184 32.8577 87.2757 33.2857L90.9752 51.4159C91.0975 52.0274 90.7612 52.4554 90.1191 52.4554H88.621C88.193 52.4554 87.8566 52.1497 87.7649 51.7217L87.0006 47.7165H82.6591L81.8948 51.7217C81.8336 52.1497 81.4973 52.4554 81.0387 52.4554H79.5712C78.9291 52.4554 78.5928 52.0274 78.7151 51.4159ZM84.8298 36.4042L83.2094 44.6591H86.4503L84.8298 36.4042Z" fill="white"/>
<path d="M13.6445 10.4032C13.6445 10.3525 13.6953 10.3187 13.7629 10.3187H13.8475C15.0991 10.3187 15.5895 9.91275 15.5895 8.88105V8.76266C15.5895 8.69501 15.6403 8.66118 15.7079 8.66118H16.8749C17.1625 8.66118 17.3485 8.84723 17.3485 9.13475V19.1642C17.3485 19.4517 17.1625 19.6547 16.8749 19.6547H16.08C15.7925 19.6547 15.5895 19.4517 15.5895 19.1642V11.621C15.1667 11.7225 14.524 11.7394 14.135 11.7394C13.8475 11.7394 13.6445 11.5364 13.6445 11.2489V10.4032Z" fill="white"/>
<path d="M19.3256 11.4349C19.3256 9.82819 20.6279 8.52588 22.2347 8.52588H22.5391C24.1459 8.52588 25.4482 9.82819 25.4482 11.4349V16.881C25.4482 18.4877 24.1459 19.79 22.5391 19.79H22.2347C20.6279 19.79 19.3256 18.4877 19.3256 16.881V16.6442C19.3256 16.5089 19.4102 16.4074 19.5624 16.4074H20.8478C20.9831 16.4074 21.0846 16.5089 21.0846 16.6442V16.881C21.0846 17.5237 21.592 18.031 22.2347 18.031H22.5391C23.1649 18.031 23.6892 17.5237 23.6892 16.881V15.5786C23.2664 15.9169 22.7082 16.1368 22.1163 16.1368C20.611 16.1368 19.3256 14.919 19.3256 13.3969V11.4349ZM23.6892 13.3969V11.4349C23.6892 10.7922 23.1649 10.2848 22.5391 10.2848H22.2347C21.592 10.2848 21.0846 10.7922 21.0846 11.4349V13.3969C21.0846 14.0396 21.592 14.5469 22.2347 14.5469H22.5391C23.1649 14.5469 23.6892 14.0396 23.6892 13.3969Z" fill="white"/>
<path d="M30.4141 4.3419C30.4141 1.94394 32.358 0 34.756 0H54.6835C57.0814 0 59.0254 1.94393 59.0254 4.3419V14.902C58.8516 17.1878 58.4633 20.5595 56.2153 23.3248C54.407 25.5498 52.1225 27.4373 47.7977 28.0829C47.8676 27.3233 47.8644 26.5239 47.7994 25.6773C47.7402 24.9022 47.4514 23.7604 46.9834 22.6725C46.5978 21.774 45.9736 20.9972 45.2043 20.3716C44.0152 19.4071 43.1615 17.398 43.522 15.9799C43.6636 18.0966 44.2842 18.983 44.9658 19.5965C45.6415 20.2037 46.2729 20.4727 46.8248 20.7079C47.2396 20.8847 47.6095 21.0423 47.9196 21.31C48.174 21.529 48.2675 21.843 48.3529 22.1295C48.4504 22.457 48.5373 22.7487 48.8414 22.822C49.1688 22.9008 49.3899 22.809 49.6168 22.7149C49.7952 22.6409 49.9771 22.5654 50.2171 22.57C50.6188 22.5769 52.7781 22.2971 53.352 21.1745C53.7232 20.4516 53.5761 19.348 52.8049 18.9291C52.594 18.8143 52.5084 18.2846 52.4187 17.7298C52.3726 17.4448 52.3254 17.1532 52.2597 16.9079C52.2173 16.751 52.169 16.5875 52.1198 16.4206C51.8794 15.6062 51.6149 14.7104 51.8902 14.096C52.1664 13.4773 52.5377 11.7724 51.8005 10.4047C51.7037 10.2222 51.5907 10.0606 51.4652 9.91461C51.2572 9.67471 51.3002 9.31157 51.5639 9.12907C51.8959 8.90244 52.3502 8.70607 52.8194 8.50327C52.8647 8.48371 52.9101 8.46409 52.9555 8.44437C54.0047 7.98898 54.5732 7.60143 55.0145 6.88204C55.348 6.33809 55.3659 5.67427 54.9248 5.03822C54.7742 4.82273 54.5047 5.00307 54.5369 5.19063C54.6373 5.76758 54.4311 6.06826 53.8788 6.40716C53.0322 6.92589 51.6137 7.20932 50.4652 7.43878C49.9591 7.5399 49.5054 7.63054 49.1763 7.72621C48.8012 7.83587 48.4308 8.00527 48.0689 8.1708C47.8857 8.25458 47.7047 8.33736 47.5263 8.41091C46.6924 8.7515 45.7705 8.76715 45.3454 8.69425C45.1338 8.65772 44.9545 8.53432 44.9957 8.33095C45.0998 7.83043 46.3623 7.43244 47.3182 7.16308C48.4212 6.85196 48.9843 6.41238 49.4668 5.71709C49.8309 5.19217 49.89 4.53187 49.4866 3.87142C49.3485 3.64902 49.0705 3.81402 49.092 4.00357C49.1566 4.58406 48.9343 4.87246 48.3603 5.18188C47.4876 5.65103 46.0598 5.85376 44.9012 6.01826C44.386 6.09141 43.9241 6.157 43.5879 6.2351C42.5226 6.48191 41.2958 6.85549 41.0178 7.87924C40.9013 8.31192 40.9855 8.74812 41.19 9.15486C41.2725 9.32001 41.1594 9.51632 40.9713 9.5355C40.5133 9.58576 40.0222 9.54691 39.6007 9.51356C39.0748 9.47195 38.657 9.43889 38.5464 9.59812C38.3204 9.92305 39.5831 11.5324 40.7254 12.0677C41.8787 12.6081 42.7359 12.5613 43.3529 12.4239C42.7072 12.6359 41.7387 12.8462 40.3184 12.2554C39.9686 12.1095 39.6045 11.8714 39.2674 11.5968C38.9733 11.3588 38.5518 11.3396 38.2398 11.5551C37.725 11.913 37.2641 12.2293 36.893 12.4571C36.1597 12.9042 35.0358 13.2214 33.828 13.5623C32.6779 13.8869 31.4518 14.2329 30.4141 14.7331V4.3419Z" fill="white"/>
<path d="M58.1572 0.868164V14.8584C57.9892 17.058 57.6238 20.0506 55.7305 22.5371L55.541 22.7773C54.4969 24.0621 53.3219 25.1863 51.6826 26.0117C50.0403 26.8387 47.8724 27.3955 44.8066 27.4482H44.7344C41.6703 27.3968 39.5097 26.8403 37.874 26.0137C36.241 25.1883 35.0708 24.0637 34.0254 22.7773V22.7764L33.835 22.5361C31.9236 20.0375 31.4488 17.0279 31.2822 14.8584V0.868164H58.1572Z" stroke="white" stroke-width="1.73676"/>
<path d="M63.9883 16.8476V11.4692C63.9883 9.84559 65.3075 8.52637 66.9312 8.52637H67.2356C68.8423 8.52637 70.1616 9.84559 70.1616 11.4692V16.8476C70.1616 18.4713 68.8423 19.7905 67.2356 19.7905H66.9312C65.3075 19.7905 63.9883 18.4713 63.9883 16.8476ZM65.7472 11.4692V16.8476C65.7472 17.5072 66.2716 18.0315 66.9312 18.0315H67.2356C67.8614 18.0315 68.4026 17.5072 68.4026 16.8476V11.4692C68.4026 10.8096 67.8614 10.2853 67.2356 10.2853H66.9312C66.2716 10.2853 65.7472 10.8096 65.7472 11.4692Z" fill="white"/>
<path d="M77.635 17.2028H77.2799V19.1647C77.2799 19.4522 77.0938 19.6552 76.8063 19.6552H76.0114C75.7239 19.6552 75.5209 19.4522 75.5209 19.1647V17.2028H71.8846C71.5971 17.2028 71.3941 16.9998 71.3941 16.7123V15.9343C71.3941 15.9174 71.3941 15.8667 71.411 15.8328L72.9163 9.03376C72.967 8.81389 73.1531 8.66167 73.3899 8.66167H74.134C74.4892 8.66167 74.6753 8.88154 74.6076 9.23672L73.2207 15.5115H75.5209V11.6722C75.5209 11.3847 75.7239 11.1986 76.0114 11.1986H76.8063C77.0938 11.1986 77.2799 11.3847 77.2799 11.6722V15.5115H77.635C77.8211 15.5115 77.9564 15.6468 77.9564 15.8328V16.8645C77.9564 17.0675 77.8211 17.2028 77.635 17.2028Z" fill="white"/>
</svg>
