<svg width="101" height="25" viewBox="0 0 101 25" fill="none" xmlns="http://www.w3.org/2000/svg">
<path d="M38.5466 24.2749L38.7371 24.4662C39.0023 24.7328 39.39 24.7669 41.0563 24.6918C42.2193 24.6439 42.4369 24.6166 42.5389 24.5141C42.6545 24.3979 42.6613 23.7555 42.6817 12.199L42.6953 0H38.5466V24.2749Z" fill="#EAEAEA"/>
<path d="M82.2986 0.355376C82.1965 0.669746 82.1761 0.943112 82.1761 2.33728C82.1761 3.86813 82.1829 3.96381 82.319 4.14833C82.3938 4.25084 82.557 4.40802 82.6726 4.4832C83.1419 4.80441 83.4412 4.81807 89.0725 4.79074C93.4933 4.77023 94.323 4.7839 94.2754 4.85908C94.0646 5.22129 91.6434 8.9869 90.8544 10.1829C89.8071 11.7752 89.2154 12.8687 89.2154 13.2172C89.2154 13.5316 89.3718 13.7093 89.7186 13.7981C89.9091 13.846 90.7592 13.8733 92.0174 13.8733H94.0102L95.8465 11.0713C96.8599 9.53363 98.1521 7.55857 98.7302 6.6838C100.301 4.29868 100.533 3.73144 100.526 2.28944C100.526 1.59236 100.403 0.615073 100.26 0.11618C100.226 0.00683414 99.7436 0 91.3237 0H82.4278L82.2986 0.355376Z" fill="#EAEAEA"/>
<path d="M25.3863 4.55154C21.4893 4.94792 18.0547 7.42871 16.572 10.9073C15.4974 13.4359 15.6267 16.5386 16.9257 19.327C18.2587 22.1905 20.7956 24.3432 23.414 24.8421C24.0941 24.972 27.4199 25.0471 28.1068 24.9515C28.8958 24.8421 29.5827 24.5893 30.8545 23.9468C32.5956 23.0652 33.4457 22.3545 34.6087 20.7826C35.5337 19.5388 36.0506 18.3223 36.3158 16.7778C36.4995 15.7117 36.4587 13.8733 36.241 12.8277C35.6017 9.8685 34.0034 7.6064 31.4054 5.99354C30.4124 5.37847 29.1066 4.88641 27.9572 4.68139C27.3519 4.57204 25.8896 4.5037 25.3863 4.55154ZM27.828 9.12358C28.7529 9.2876 29.6235 9.8275 30.6096 10.8321C31.7318 11.9734 32.1331 13.1762 32.0651 15.1376C32.0379 15.9372 32.0039 16.1901 31.8475 16.6753C31.317 18.3292 30.3036 19.5662 28.9298 20.2291C27.9504 20.7006 27.7191 20.7416 26.1345 20.7416C24.2574 20.7348 23.6861 20.5913 22.6999 19.8327C20.8364 18.4112 20.0474 16.7983 20.1358 14.5909C20.1766 13.6273 20.3127 13.0327 20.6527 12.2673C21.4077 10.5929 22.9311 9.38328 24.6178 9.09625C25.2095 9.00057 27.2295 9.01424 27.828 9.12358Z" fill="#EAEAEA"/>
<path d="M53.7813 4.55154C51.5505 4.7634 49.3605 5.80902 47.7622 7.42872C43.7427 11.4882 43.7563 18.0353 47.7894 22.2315C48.1839 22.6415 48.7688 23.1746 49.0885 23.4138C49.8706 24.0084 50.9928 24.5619 51.8429 24.7738C52.4891 24.9378 52.6251 24.9515 54.6654 24.9651C56.2365 24.972 56.9166 24.9515 57.2159 24.89C57.8212 24.7533 58.8414 24.227 60.0724 23.4138L61.1606 22.6962L61.2014 24.6713H65.3433V15.083C65.3433 5.66551 65.3433 5.48782 65.2073 5.35114C64.9556 5.07777 64.6632 5.03676 63.1329 5.07094C62.2215 5.09144 61.6434 5.13244 61.5482 5.18712C61.2354 5.35797 61.1606 5.57666 61.1742 6.33525C61.181 6.7248 61.1606 7.03917 61.1265 7.03917C61.0925 7.03917 60.6981 6.77947 60.2424 6.45827C58.6781 5.35114 57.896 4.97526 56.6514 4.71556C55.9713 4.57888 54.441 4.49003 53.7813 4.55154ZM56.495 8.89122C58.2429 9.30127 59.7731 10.5383 60.5484 12.1716C60.9089 12.937 61.0653 13.641 61.1061 14.6251C61.181 16.525 60.5212 18.213 59.229 19.4226C57.3383 21.1859 54.6926 21.5412 52.3054 20.3521C50.782 19.5935 49.5713 18.1242 49.1089 16.4703C48.9252 15.8005 48.9456 14.0442 49.1497 13.2924C49.3129 12.6842 49.721 11.7821 50.0406 11.3105C50.782 10.2307 51.9314 9.39695 53.2372 8.99374C54.3186 8.65886 55.3592 8.62469 56.495 8.89122Z" fill="#EAEAEA"/>
<path d="M6.64233 4.64722C4.87402 4.85224 3.47298 5.49465 2.39839 6.58812C1.73188 7.2647 1.49384 7.62007 1.03136 8.65886C0.480462 9.90268 0.41245 10.7638 0.772913 12.0213C1.01095 12.8345 1.2898 13.3266 1.8747 13.9553C3.07851 15.2333 3.90145 15.7117 5.56094 16.0944C6.75115 16.3678 7.29524 16.5386 8.64867 17.0649C10.2538 17.6868 10.7366 18.0216 10.9203 18.6504C11.2943 19.8942 10.4714 20.7621 8.68268 20.9877C7.59449 21.1312 6.40429 20.9057 5.3501 20.3589C4.69719 20.0172 4.41154 19.7233 4.01027 18.9648C3.6158 18.1993 3.47298 18.1105 2.95609 18.2813C2.75886 18.3428 2.28277 18.582 1.88831 18.8076C1.49384 19.0399 0.976948 19.3406 0.732105 19.4841C0.0859938 19.8532 -0.0432285 20.0172 0.0111809 20.3658C0.154006 21.2679 1.37142 22.7645 2.73165 23.7077C3.37096 24.145 4.1531 24.5414 4.7788 24.7396C5.76498 25.0471 9.18597 25.095 10.519 24.8148C11.2399 24.6576 12.0969 24.2749 12.7294 23.8238C13.2599 23.448 14.0148 22.6484 14.3889 22.0743C15.4839 20.3931 15.5859 18.049 14.6269 16.402C14.2664 15.7869 13.4707 14.9668 12.8178 14.5499C12.0833 14.0783 11.4576 13.8255 9.74366 13.3266C6.86677 12.4928 6.62872 12.3971 5.49973 11.6591L4.99644 11.3378L5.04405 10.7911C5.13247 9.73182 5.50653 9.14409 6.25466 8.91856C6.45189 8.85705 6.98919 8.78871 7.44487 8.76821C9.15876 8.6862 10.0973 9.10308 10.8795 10.2786C11.4576 11.1465 11.5324 11.167 12.5525 10.6613C13.0626 10.4152 14.6201 9.54047 14.9262 9.32861C14.9398 9.32177 14.8717 9.08941 14.7765 8.81605C14.3209 7.46289 13.2123 6.27374 11.716 5.52199C10.3014 4.81124 8.26781 4.45586 6.64233 4.64722Z" fill="#EAEAEA"/>
<path d="M76.6265 4.85224C75.9123 4.92742 75.0826 5.18712 74.6269 5.47415C74.4433 5.59033 73.9604 5.93204 73.5659 6.22591C73.1715 6.51978 72.8246 6.76581 72.7974 6.76581C72.777 6.76581 72.7566 6.4036 72.7566 5.95254V5.14611L72.4029 5.09827C72.2057 5.07777 71.4236 5.05727 70.6686 5.05727C69.0704 5.05727 68.7983 5.11878 68.6351 5.50832C68.4991 5.82953 68.4922 23.9947 68.6283 24.2544C68.6691 24.3432 68.7915 24.4799 68.9003 24.5619C69.1316 24.7328 69.8797 24.7738 71.5596 24.7054L72.743 24.6576L72.709 20.9193C72.6614 16.1628 72.7838 13.682 73.1307 12.3425C73.3755 11.413 74.0284 10.5041 74.8514 9.95735C75.5043 9.51997 76.0007 9.36962 77.1909 9.26027C78.3335 9.15776 78.49 9.08942 78.5988 8.69987C78.6396 8.54952 78.6736 7.73625 78.6736 6.82048C78.6736 5.24179 78.6668 5.20079 78.524 5.0231C78.3812 4.86591 78.3131 4.84541 77.7895 4.81807C77.4698 4.80441 76.9461 4.81807 76.6265 4.85224Z" fill="#EAEAEA"/>
<path d="M83.7676 8.52902C83.4412 8.59052 83.2439 8.84339 81.0335 12.0964C80.0678 13.5043 78.7551 15.411 78.1022 16.3336C76.7012 18.3155 76.3543 18.8554 76.0823 19.4431L75.8782 19.8805L75.8986 21.6779C75.9191 23.4411 75.9259 23.4821 76.0891 23.8102C76.4155 24.4594 75.1097 24.3979 88.6577 24.3979C99.2131 24.3979 100.601 24.3842 100.777 24.2954C101.145 24.104 101.097 23.858 100.335 21.9649C99.3763 19.5867 99.1315 19.1424 98.6214 18.8896C98.3765 18.7666 98.0433 18.7666 90.8408 18.7871C86.6581 18.8007 83.2983 18.7802 83.2779 18.7529C83.2439 18.6914 84.6994 16.1628 86.5153 13.1216C87.0458 12.24 87.6647 11.1328 87.9027 10.6681C88.3516 9.77966 88.6645 8.91173 88.5624 8.81605C88.5284 8.78188 88.2428 8.7067 87.9231 8.63836C87.4947 8.55635 86.9166 8.52218 85.6787 8.50851C84.7606 8.49485 83.9036 8.50851 83.7676 8.52902Z" fill="#EAEAEA"/>
</svg>
