<svg width="88" height="30" viewBox="0 0 88 30" fill="none" xmlns="http://www.w3.org/2000/svg">
<path d="M22.6073 8.23317C19.8752 8.23317 17.4693 9.36134 15.8837 11.2788V1.83868H11.3602V29.3296H15.6778V26.7388C17.3127 28.6563 19.797 29.7473 22.6073 29.7473C28.1468 29.7473 31.9325 24.9448 31.9325 19.0081C31.9325 13.0714 28.1482 8.23168 22.6073 8.23168V8.23317ZM21.4666 25.2747C18.2911 25.2747 15.8851 22.6839 15.8851 19.0096C15.8851 15.3352 18.249 12.7013 21.4666 12.7013C24.8857 12.7013 27.3322 15.3768 27.3322 19.0096C27.3322 22.6423 24.8857 25.2747 21.4666 25.2747ZM7.29178 2.82119C7.29178 4.37893 6.05982 5.64237 4.54088 5.64237C3.02194 5.64237 1.78997 4.37893 1.78997 2.82119C1.78997 1.26344 3.02194 0 4.54088 0C6.05982 0 7.29178 1.26344 7.29178 2.82119ZM87.9971 17.4206V29.3281H83.4736V18.0493C83.4736 15.1657 82.8605 12.6998 79.3197 12.6998C76.4282 12.6998 74.7585 15.0409 74.7585 17.8383V29.3296H70.2351V18.0508C70.2351 15.1672 69.6278 12.7013 66.0812 12.7013C63.0679 12.7013 61.478 15.3352 61.478 18.1326V29.3311H56.9588V8.65085H61.478V11.6965C62.5404 9.77754 64.9028 8.23317 67.387 8.23317C70.5641 8.23317 72.683 9.65268 73.7396 12.1573C75.0818 9.73443 77.9356 8.23317 80.3415 8.23317C85.6375 8.23317 88 11.5716 88 17.4206H87.9971ZM6.80045 8.65085V29.3296H2.28131V12.077H0V8.65085H6.80045ZM45.0972 29.9985C29.5817 29.9985 31.4876 7.98197 44.1594 7.98197C53.7644 7.98197 53.9036 18.8639 53.9036 18.9739V19.1389L53.7572 19.2058C46.3059 22.5754 39.6548 21.1128 38.5025 20.8215C38.6257 21.6316 39.1953 23.1804 40.3577 24.4097C41.494 25.6092 42.9101 26.2171 44.5653 26.2171C49.038 26.2171 49.8743 22.7954 49.9076 22.6498L49.9526 22.455H54.1239C54.1239 22.455 53.5441 30 45.0986 30L45.0972 29.9985ZM38.5054 16.8067C39.1055 16.9866 40.9839 17.4771 43.6087 17.4771C45.6595 17.4771 47.6915 17.1768 49.6496 16.5852C49.2018 14.5875 47.7263 11.6593 44.1217 11.6593C39.9418 11.6593 38.7199 16.068 38.5054 16.8067Z" fill="white"/>
</svg>
