<svg width="97" height="55" viewBox="0 0 97 55" fill="none" xmlns="http://www.w3.org/2000/svg">
<path d="M44.1864 33.6708H50.1949L35.5683 18.9562L48.3933 6.04467L55.9248 13.6215L50.4735 19.1056L53.4824 22.1233L61.9334 13.6215L48.3933 0L29.5598 18.9562L44.1864 33.6708Z" fill="white"/>
<path d="M56.7395 29.3986L56.7885 29.4479L53.7796 32.4749L53.7286 32.4235L53.5844 32.5684L40.0536 18.9562L43.0532 15.9292L43.0579 15.9339L48.4675 10.4917L51.4672 13.5094L46.2109 18.8066L53.7332 26.3742L64.1713 15.8918L67.1709 18.9188L56.7395 29.3986Z" fill="white"/>
<path d="M19.2328 48.7685C18.8892 53.5986 14.7102 55 9.63035 55C4.3462 54.9907 0 53.4491 0 48.0771V47.0588C0 41.6961 4.3462 40.1546 9.63035 40.1359C14.7102 40.1359 18.9171 41.584 19.2328 46.3674H13.5958C13.085 44.966 11.5249 44.639 9.63035 44.639C7.38296 44.639 5.47918 45.0781 5.50704 47.4418V47.7969C5.50704 50.1045 7.36439 50.5249 9.63035 50.5996C11.4877 50.5996 13.0943 50.2633 13.5958 48.8619L19.2328 48.7685Z" fill="white"/>
<path d="M32.81 40.4628V50.1511H43.8241V54.6543H27.3122V40.4628H32.81Z" fill="white"/>
<path d="M65.7129 40.5189C67.121 40.5165 68.4727 41.0755 69.4718 42.0737C70.471 43.0718 71.0361 44.4277 71.0435 45.8442C71.0447 46.5488 70.9077 47.2467 70.6402 47.8979C70.3728 48.5491 69.9802 49.1407 69.4849 49.639C68.9897 50.1372 68.4016 50.5321 67.7543 50.8012C67.107 51.0703 66.4133 51.2081 65.7129 51.2069H57.6241V54.673H52.1264V40.5189H65.7129ZM64.3385 47.0588C64.494 47.0625 64.6486 47.0337 64.7924 46.9742C64.9363 46.9147 65.0663 46.8258 65.1743 46.7131C65.2901 46.6026 65.3821 46.4692 65.4444 46.3213C65.5068 46.1734 65.5381 46.0142 65.5364 45.8536C65.5391 45.6942 65.5082 45.536 65.4457 45.3895C65.3833 45.243 65.2908 45.1114 65.1743 45.0034C65.0682 44.8876 64.9388 44.796 64.7946 44.7348C64.6504 44.6736 64.4949 44.6441 64.3385 44.6484H57.6241V47.0588H64.3385Z" fill="white"/>
<path d="M84.9272 54.673V44.9847H78.4265V40.5189H97V45.0127H90.4993V54.701L84.9272 54.673Z" fill="white"/>
</svg>
