<svg width="105" height="31" viewBox="0 0 105 31" fill="none" xmlns="http://www.w3.org/2000/svg">
<path d="M54.0729 25.5779L54.1021 25.573C55.4864 25.3541 56.7359 26.513 56.9425 27.8493C57.0553 28.5854 56.8676 29.3361 56.4205 29.9317C55.9663 30.5424 55.4285 30.8331 54.6933 30.9406C51.1774 31.3239 50.5436 26.0588 54.0729 25.5779ZM54.6697 30.0347C55.6438 29.8457 56.2806 28.9023 56.0924 27.9271C55.9037 26.9519 54.9619 26.314 53.9878 26.5021C53.0132 26.6902 52.3754 27.6341 52.5641 28.6099C52.7522 29.5858 53.6951 30.2238 54.6697 30.0347Z" fill="#FEFEFE"/>
<path d="M84.317 25.5815C84.8764 25.4741 85.6029 25.7121 86.0561 26.0412C86.6267 26.464 87.0081 27.095 87.1179 27.7974C87.3675 29.3929 86.4109 30.7247 84.8133 30.9574C83.2911 31.069 82.0811 30.0592 81.9161 28.5401C81.8417 27.8073 82.0591 27.0748 82.5205 26.5012C82.9866 25.9279 83.5946 25.6548 84.317 25.5815ZM84.9164 30.0255C85.8782 29.8147 86.4908 28.8677 86.2904 27.9026C86.0894 26.9374 85.1496 26.3141 84.1837 26.5054C83.55 26.6308 83.0327 27.0873 82.8287 27.7008C82.6241 28.3143 82.7651 28.9904 83.1968 29.4713C83.629 29.9522 84.2852 30.1638 84.9164 30.0255Z" fill="#FEFEFE"/>
<path d="M44.9244 25.6246C45.6131 25.7985 45.8057 25.6629 46.508 25.6398C47.3124 25.6096 48.229 25.5808 48.8854 26.1271C49.3989 26.5545 49.34 27.633 48.9036 28.0911C48.5293 28.4841 47.9588 28.6401 47.4187 28.6527C47.9355 29.1763 48.9451 30.5118 49.3849 30.8657L48.5166 30.8858C48.4934 30.885 48.4702 30.884 48.447 30.8826C48.1769 30.8668 48.1411 30.8263 47.9548 30.6264C47.2478 29.8679 46.6054 29.0505 45.9155 28.276C45.9654 28.9863 45.936 30.1346 45.9411 30.879C45.6591 30.8823 45.3614 30.8738 45.0781 30.8705C45.0441 29.736 45.0767 28.579 45.0481 27.4394C45.0375 27.0183 44.87 25.9374 44.9244 25.6246ZM45.9164 27.7565C46.6013 27.7614 47.6995 27.8904 48.2334 27.5141C49.0237 26.1405 46.571 26.5933 45.9222 26.495C45.9278 26.8939 45.9448 27.365 45.9164 27.7565Z" fill="#FEFEFE"/>
<path d="M33.1914 25.5779C34.065 25.4194 34.9118 25.8559 35.4953 26.4796C35.2952 26.6742 35.0776 26.8662 34.8704 27.0544C32.1469 24.6745 30.1956 29.7101 33.4596 30.1034C33.9088 30.1576 34.3405 29.9523 34.6703 29.653C34.6592 29.4036 34.6663 29.1285 34.6677 28.8768L33.4371 28.8783C33.418 28.6726 33.4232 28.3816 33.4212 28.1684L33.4332 28.1038C33.582 27.9692 35.2188 27.9977 35.5518 27.9833L35.5661 29.9538C34.6308 31.025 33.2099 31.3873 32.0108 30.4999C31.4089 30.0564 31.012 29.3879 30.9105 28.6466C30.6945 27.104 31.6385 25.7907 33.1914 25.5779Z" fill="#FEFEFE"/>
<path d="M64.257 25.6196C64.5538 25.6157 64.8737 25.6893 65.0173 25.9793C65.794 27.5461 66.2919 29.3002 67.0363 30.877C66.7235 30.8822 66.3949 30.8704 66.0811 30.8643C65.9304 30.504 65.5161 29.4714 65.4377 29.1331C65.1824 29.1427 64.8963 29.1383 64.6379 29.1403C64.2565 29.1455 63.8991 29.1578 63.5187 29.117C63.2834 29.6545 63.048 30.3047 62.8614 30.8572C62.5769 30.8903 62.1641 30.8723 61.8688 30.8682C62.6292 29.342 63.0855 27.4164 63.915 25.8988C63.9806 25.7789 64.1375 25.6864 64.257 25.6196ZM63.8432 28.2774C64.0698 28.2602 64.2954 28.2378 64.5225 28.2503C64.6702 28.2526 64.9276 28.2798 65.0373 28.2024C64.9471 28.0065 64.5277 26.9733 64.421 26.8846C64.2329 27.3506 64.0401 27.8149 63.8432 28.2774Z" fill="#FEFEFE"/>
<path d="M19.6001 25.6341C20.4594 25.5288 21.4445 25.9088 22.1445 26.4048C21.9492 26.6001 21.6964 26.7739 21.4718 26.9382C20.6789 26.5725 19.6591 26.1561 18.8504 26.7455C18.7063 26.8505 18.6861 26.9173 18.6619 27.0796C18.7641 27.3936 19.3098 27.6765 19.6283 27.7469C20.7539 27.996 23.024 28.6866 21.9087 30.25C21.5845 30.7042 20.9747 30.8275 20.4273 30.8964C19.3236 30.9478 18.62 30.9532 17.831 30.0896C18.0433 29.8556 18.1468 29.7832 18.42 29.6311C19.2403 30.1013 19.7845 30.0955 20.706 29.9838C20.9776 29.9509 21.2401 29.8051 21.3345 29.539C21.1947 28.9256 19.7836 28.7556 19.2433 28.5468C17.1743 27.7472 17.2379 25.8981 19.6001 25.6341Z" fill="#FEFEFE"/>
<path d="M26.2174 25.6386C26.9564 25.6081 27.7424 25.6391 28.5103 25.6099C28.5349 26.1482 28.6911 26.5573 28.0052 26.5123C27.2816 26.4648 26.4905 26.5774 25.7685 26.4966C25.7848 26.9224 25.7758 27.3838 25.7748 27.8128C26.5165 27.7979 27.1882 27.8435 27.932 27.7735C27.9385 28.0151 27.9684 28.3809 27.8989 28.5999C27.6991 28.7542 26.0943 28.7002 25.7659 28.6822C25.7816 28.9912 25.7161 29.7886 25.8436 29.9912L25.9469 29.9941C26.8001 30.0297 27.6545 30.0254 28.5072 29.9811C28.5118 30.3171 28.5208 30.5407 28.5575 30.8785C27.3467 30.8835 26.1359 30.8792 24.9251 30.8658C24.8976 29.5765 24.9434 28.2719 24.9126 26.9797C24.9033 26.5886 24.7114 25.985 24.8008 25.714C24.9946 25.6243 25.2283 25.7506 25.4237 25.719C25.7177 25.6716 25.9174 25.6524 26.2174 25.6386Z" fill="#FEFEFE"/>
<path d="M41.251 25.6454L42.0974 25.6163L42.1049 26.7213C42.0932 27.9791 42.4431 29.9973 41.1657 30.6847C39.9334 31.3477 38.4791 30.6592 38.3288 29.2379C38.2447 28.442 38.298 27.6366 38.2948 26.8378C38.2937 26.5385 38.2624 25.7835 38.5225 25.6377L39.1666 25.6171L39.1747 29.3552C39.5508 30.0357 39.8841 30.1044 40.6157 30.0168C40.6423 29.997 40.6682 29.9763 40.6934 29.9548C41.2496 29.4826 41.2188 29.129 41.2166 28.4348C41.2138 27.5064 41.1774 26.5716 41.251 25.6454Z" fill="#FEFEFE"/>
<path d="M72.2301 25.6479L73.0556 25.6166L73.0597 26.6541C73.0535 27.539 73.2078 29.2522 72.8074 29.9719C72.569 30.4027 72.1696 30.7209 71.6969 30.8565C70.7054 31.1341 69.5518 30.6151 69.3057 29.547C69.1488 28.8659 69.255 28.0636 69.2334 27.3595C69.2232 27.016 69.1873 25.8929 69.3411 25.6352C69.5928 25.6207 69.8461 25.6318 70.0989 25.6391C70.1332 26.698 70.1378 28.2255 70.0912 29.2746C70.5254 30.0439 70.7105 30.1148 71.5734 30.0115C72.0938 29.5406 72.1814 29.3407 72.1891 28.6195C72.1999 27.638 72.1255 26.6244 72.2301 25.6479Z" fill="#FEFEFE"/>
<path d="M75.6419 25.634C76.9498 25.6352 78.4043 25.6665 79.7004 25.6087C79.7548 26.5726 79.624 26.5885 78.7114 26.5218C78.5166 26.5076 78.2777 26.5081 78.0772 26.499L78.0757 29.3884L78.0788 30.8679C77.7978 30.8858 77.4676 30.8747 77.1831 30.8723C77.1426 29.4507 77.1544 27.9395 77.1518 26.5121C76.6222 26.5007 76.0926 26.504 75.5635 26.522C75.5573 26.2663 75.5168 25.8355 75.6419 25.634Z" fill="#FEFEFE"/>
<path d="M29.3392 0H31.7189C34.5971 0.580637 36.4876 1.57914 38.263 4.07362C38.7747 4.79251 39.5367 6.47738 39.6036 7.35125C42.5404 7.33293 45.4989 7.37733 48.4316 7.33796C48.6216 5.4685 50.171 3.15804 51.6314 2.01365C53.1418 0.830125 54.4882 0.351983 56.3169 0H58.6733C58.9988 0.0815511 59.3623 0.128853 59.7156 0.219503C60.9861 0.533124 62.1765 1.10884 63.2117 1.9098C65.1625 3.42726 66.4288 5.66069 66.7303 8.11559C67.023 10.5417 66.3442 12.9852 64.842 14.9115C63.3122 16.8712 61.0655 18.1402 58.5989 18.4381C56.1288 18.7159 53.6489 18.0106 51.6935 16.4744C50.194 15.2837 48.6516 13.04 48.4292 11.1211C45.6266 11.1907 42.4261 11.1352 39.6058 11.1246C39.4113 12.2598 38.8989 13.4113 38.2651 14.3687C35.4223 18.6632 29.5803 19.7662 25.309 16.9058C23.3018 15.5399 21.9066 13.4433 21.4204 11.0627C20.9398 8.61176 21.4502 6.07006 22.8395 3.99557C24.44 1.61098 26.6029 0.539756 29.3392 0ZM58.1134 14.6488C61.1132 14.3066 63.2634 11.5885 62.9092 8.58671C62.5549 5.58497 59.831 3.4435 56.8342 3.81083C53.8555 4.17598 51.7319 6.88357 52.0841 9.8675C52.4363 12.8515 55.1316 14.9889 58.1134 14.6488ZM31.2486 14.6342C34.2206 14.2367 36.3132 11.5093 35.9305 8.53168C35.5479 5.55407 32.8339 3.44584 29.8581 3.81456C26.8619 4.18581 24.7386 6.92581 25.1239 9.92386C25.5092 12.9219 28.2561 15.0345 31.2486 14.6342Z" fill="#FEFEFE"/>
<path d="M76.0141 0H77.119C77.6322 0.20101 78.1131 0.558523 78.3387 1.07684C78.6412 1.77048 78.5022 7.26804 78.4925 8.4243C80.2295 10.2638 82.2367 12.0612 83.987 13.9355C84.8253 12.9855 86.2301 11.8017 87.1709 10.8671C87.6185 10.4227 89.0458 9.02909 89.4498 8.73711C89.4067 8.16671 89.4078 7.54318 89.416 6.96914C89.4411 5.19895 89.3509 3.41065 89.457 1.64532C89.5077 0.810563 90.0435 0.302872 90.7823 0H91.8851C92.0692 0.0551408 92.3583 0.225565 92.5106 0.344308C93.2766 0.940838 93.2658 1.74757 93.2627 2.61839C93.2545 4.89792 93.2786 7.1719 93.2484 9.45022C93.2448 9.74712 93.1489 10.1168 93.0674 10.4008C92.9987 10.6422 92.7849 10.7959 92.626 10.9784C91.1038 12.4555 89.558 13.9033 88.0225 15.3678C87.0463 16.2934 86.106 17.2551 85.0796 18.1261C84.6515 18.4892 83.8942 18.5828 83.3728 18.4026C83.1211 18.3156 82.7617 18.0772 82.5689 17.8943C81.3579 16.745 80.1675 15.5086 78.9888 14.3321L76.5935 11.9458C76.0751 11.4298 75.4973 10.9054 75.0523 10.3266C74.8072 10.008 74.6611 9.56725 74.6565 9.16363C74.6309 6.76088 74.6565 4.35555 74.6452 1.95227C74.6406 1.00496 75.1989 0.377215 76.0141 0Z" fill="#FEFEFE"/>
<path d="M1.33492 0H2.50444C2.99448 0.282418 3.58217 0.667187 3.70826 1.25594C3.88733 2.09204 3.82557 3.23272 3.82305 4.10074L3.81974 7.66838L3.82136 12.3106C3.82163 13.0531 3.84758 13.9859 3.81746 14.7184C4.45885 14.6829 5.19094 14.7094 5.84083 14.7106L9.27178 14.7076C10.5919 14.7062 12.0318 14.6632 13.3495 14.7553C14.1748 14.813 14.8161 15.6684 14.8588 16.492C14.8894 16.9911 14.7198 17.4818 14.3877 17.8553C14.002 18.2807 13.5529 18.4632 12.9936 18.4715C12.1649 18.4837 11.3358 18.4794 10.5074 18.4797L3.10958 18.4807C1.4128 18.4803 0.890736 18.707 0 17.104V1.36905C0.342901 0.64089 0.58762 0.329523 1.33492 0Z" fill="#FEFEFE"/>
<path d="M102.479 0H103.564C104.167 0.237594 104.569 0.554765 104.834 1.16626C104.892 1.30415 104.948 1.44327 105 1.58352V16.866C104.783 17.4543 104.503 18.0015 103.929 18.292C102.996 18.7643 101.711 18.3496 101.287 17.3778C101.179 17.1305 101.124 16.5407 101.122 16.2643C101.105 14.1274 101.115 11.9897 101.115 9.85276L101.111 4.63445C101.111 3.69514 101.038 2.12568 101.229 1.21272C101.346 0.654093 101.982 0.245311 102.479 0Z" fill="#FEFEFE"/>
</svg>
