<svg width="211" height="25" viewBox="0 0 211 25" fill="none" xmlns="http://www.w3.org/2000/svg">
<path d="M98.2475 4.12604C99.1164 2.95373 99.8155 1.75005 100.792 0.824745C101.176 0.462074 102.48 0.420905 102.836 0.762013C103.827 1.71672 104.542 2.94785 105.411 4.12996C104.55 4.40245 103.978 4.28679 103.531 3.65751C103.189 3.17917 102.766 2.75573 102.428 2.27347C101.989 1.64419 101.617 1.74025 101.21 2.29308C100.918 2.68907 100.565 3.04391 100.305 3.45755C99.8675 4.15937 99.2962 4.45146 98.2475 4.12604Z" fill="white"/>
<path d="M197.514 3.24387C196.805 3.16741 196.281 2.84199 196.263 2.11272C196.245 1.39718 196.685 0.944332 197.43 0.93453C198.155 0.924728 198.65 1.32857 198.686 2.04215C198.722 2.77337 198.211 3.12428 197.516 3.24583L197.514 3.24387Z" fill="white"/>
<path d="M148.973 3.43599C148.973 3.96333 148.979 4.49068 148.973 5.01802C148.965 5.62182 148.53 6.05703 147.948 6.05311C147.345 6.04919 146.948 5.64143 146.942 5.0141C146.932 3.98294 146.924 2.95177 146.918 1.92061C146.916 1.48344 147.07 1.11881 147.487 0.924732C147.865 0.750257 148.278 0.742416 148.572 1.04628C148.767 1.24624 148.925 1.5501 148.955 1.82259C149.015 2.35385 148.973 2.89688 148.973 3.43599Z" fill="white"/>
<path d="M44.062 6.70983H45.7219C45.7978 7.21561 45.8677 7.68022 45.9736 8.38204C47.1542 7.08818 48.4426 6.37264 50.0666 6.46282C51.7226 6.553 52.9091 7.42733 53.8939 8.83489C54.1356 8.58592 54.3333 8.39772 54.5151 8.1958C55.9054 6.63926 57.9289 6.07858 59.8306 6.72943C61.4426 7.2803 62.741 9.10346 62.783 11.0364C62.8309 13.3536 62.773 15.6747 62.807 17.9919C62.8169 18.729 62.4054 18.7525 61.8561 18.7525C61.3088 18.7525 60.8853 18.7368 60.8913 17.9997C60.9133 15.7786 60.9432 13.5555 60.8573 11.3383C60.7575 8.77804 58.5342 7.41361 56.255 8.4585C54.9706 9.04661 54.4292 10.1405 54.4093 11.4736C54.3773 13.5967 54.3693 15.7198 54.4172 17.8429C54.4352 18.6211 54.0976 18.7584 53.4085 18.7643C52.7193 18.7721 52.4596 18.5545 52.4716 17.8664C52.5056 16.104 52.4936 14.3397 52.4836 12.5753C52.4796 12.0205 52.4696 11.4618 52.3917 10.9149C52.1221 9.02505 50.9435 8.06642 49.0498 8.16444C47.3999 8.24873 46.0595 9.54063 46.0136 11.2305C45.9536 13.385 45.9676 15.5414 45.9936 17.6958C46.0016 18.3937 45.9017 18.776 45.0328 18.7721C44.1918 18.7682 43.9581 18.4996 43.9661 17.7017C43.998 14.3063 43.9721 10.909 43.9741 7.51163C43.9741 7.25874 44.03 7.00585 44.0639 6.70787L44.062 6.70983Z" fill="white"/>
<path d="M82.6866 17.2293C82.6546 17.5939 82.6067 17.8978 82.6047 18.1997C82.5967 20.1581 82.5767 22.1165 82.6127 24.073C82.6246 24.7709 82.353 24.9944 81.6778 24.9748C81.0825 24.9571 80.675 24.9238 80.679 24.1436C80.705 18.4977 80.693 12.8517 80.695 7.20582C80.695 7.07839 80.731 6.95293 80.7629 6.74121H82.4828C82.5308 7.27051 82.5787 7.80766 82.6506 8.61142C83.979 7.09604 85.5051 6.38246 87.3568 6.47263C89.1786 6.56281 90.6987 7.26659 91.8293 8.69179C93.5832 10.9012 93.4374 15.0278 91.5497 17.096C89.3584 19.4975 86.6857 19.5602 82.6866 17.2273V17.2293ZM91.1162 12.3303C91.1042 11.3834 90.8386 10.0562 89.7 9.06623C88.3856 7.92332 86.3241 7.66259 84.748 8.46243C82.7605 9.47007 82.6107 11.3168 82.6626 13.187C82.7125 14.9925 83.3018 16.5275 85.2175 17.2254C85.2494 17.2371 85.2814 17.243 85.3133 17.2548C88.4875 18.2703 91.0903 16.2707 91.1162 12.3303Z" fill="white"/>
<path d="M163.266 17.1117C163.266 18.6153 163.266 19.9072 163.266 21.1991C163.266 22.1459 163.248 23.0908 163.276 24.0377C163.294 24.665 163.136 25.0081 162.389 24.9944C161.684 24.9826 161.372 24.7925 161.378 24.0436C161.406 20.5208 161.39 16.998 161.39 13.4732C161.39 11.2599 161.39 9.04662 161.39 6.63338C162.023 6.70199 162.74 6.57653 163.018 6.86275C163.322 7.17641 163.22 7.86843 163.324 8.60357C164.818 6.93528 166.546 6.25699 168.637 6.53732C170.045 6.72552 171.258 7.29011 172.187 8.335C174.352 10.7659 174.306 14.8317 172.123 17.2352C170.055 19.5092 166.907 19.5269 163.266 17.1136V17.1117ZM163.262 12.6596C163.324 13.2418 163.326 13.8378 163.459 14.4024C163.809 15.8668 164.642 16.9823 166.202 17.3175C167.87 17.6762 169.466 17.492 170.681 16.1432C172.217 14.4377 172.213 11.0148 170.671 9.3348C170.347 8.98193 169.926 8.67218 169.49 8.46242C166.256 6.9196 163.338 8.90939 163.262 12.6596Z" fill="white"/>
<path d="M39.3338 18.7388C39.3338 16.1589 39.3877 13.7751 39.3198 11.3952C39.2439 8.73296 36.689 7.28815 34.3638 8.54084C33.0575 9.24462 32.57 10.4248 32.5421 11.8068C32.5021 13.7653 32.4642 15.7257 32.5181 17.6821C32.5421 18.5761 32.2085 18.9289 31.3715 18.7251C31.0879 18.6564 30.7962 18.3232 30.6644 18.0428C30.5345 17.7664 30.5905 17.4018 30.5905 17.0764C30.5885 11.7872 30.6005 6.49812 30.5785 1.20899C30.5745 0.466002 30.7842 0.1543 31.5893 0.162142C32.2924 0.169983 32.5181 0.40719 32.5081 1.07764C32.4802 3.0694 32.4981 5.06115 32.5081 7.05291C32.5101 7.39597 32.574 7.741 32.618 8.14484C33.3151 7.69199 33.8724 7.2215 34.5137 6.93136C37.5799 5.53753 40.9498 7.35873 41.1895 10.6483C41.3693 13.1164 41.2614 15.608 41.2294 18.0879C41.2274 18.3075 40.8699 18.6349 40.6162 18.7133C40.2626 18.8211 39.8471 18.7407 39.3357 18.7407L39.3338 18.7388Z" fill="white"/>
<path d="M117.574 13.4399C117.486 14.771 117.909 15.7551 118.802 16.5314C120.46 17.9723 123.856 17.7782 124.977 15.8021C125.348 15.1474 125.564 15.1572 126.896 15.5453C126.543 17.1979 125.304 18.0448 123.882 18.6074C120.856 19.8033 117.288 18.4075 116.026 15.6257C114.587 12.4518 115.766 8.54084 118.696 7.1372C120.764 6.14721 122.899 6.15701 124.871 7.44106C126.796 8.69571 127.228 10.6424 127.22 12.7518C127.218 13.4575 126.701 13.3889 126.237 13.3908C123.744 13.3908 121.251 13.383 118.756 13.385C118.397 13.385 118.035 13.4183 117.572 13.4418L117.574 13.4399ZM121.325 11.95V11.9637C122.388 11.9637 123.451 11.95 124.511 11.9696C125.18 11.9813 125.364 11.7167 125.27 11.0678C124.997 9.20345 123.538 7.98801 121.515 8.00566C119.4 8.0233 117.815 9.29951 117.562 11.156C117.486 11.7049 117.672 11.9558 118.237 11.9519C119.266 11.946 120.294 11.9519 121.325 11.9519V11.95Z" fill="white"/>
<path d="M176.35 10.4405C176.573 8.57809 177.578 7.53908 179.104 6.85687C182.099 5.51988 185.44 7.2215 185.706 10.4012C185.92 12.9635 185.816 15.5512 185.8 18.1271C185.8 18.3369 185.371 18.727 185.157 18.7172C184.737 18.6976 184.298 18.5035 183.934 18.28C183.783 18.186 183.801 17.8272 183.721 17.4979C183.127 17.8723 182.658 18.2252 182.139 18.4859C180.604 19.2563 179.036 19.1818 177.548 18.4075C176.314 17.7645 175.772 16.4843 176.012 15.0729C176.26 13.6222 177.179 12.7027 178.601 12.4322C179.995 12.1676 181.429 12.0597 182.852 11.9774C183.681 11.9284 183.938 11.6696 183.832 10.8365C183.607 9.06034 183.033 8.30167 181.567 8.08603C180.163 7.88019 178.667 8.58789 178.245 10.0856C177.99 10.9992 177.105 10.3954 176.35 10.4405ZM180.223 17.7253L180.359 17.4802C182.542 17.4802 183.884 16.1962 183.912 14.1181C183.918 13.6084 183.777 13.2595 183.201 13.3105C181.947 13.4183 180.676 13.4712 179.444 13.7065C178.06 13.9711 177.368 15.5022 178.207 16.5804C178.643 17.1391 179.536 17.3567 180.221 17.7272L180.223 17.7253Z" fill="white"/>
<path d="M78.0203 12.6929C78.0363 16.3843 75.4574 18.9701 71.746 18.9819C67.9307 18.9936 65.3019 16.3981 65.3019 12.6204C65.3019 9.14463 67.9826 6.51183 71.5602 6.47458C75.3396 6.43538 78.0043 8.99956 78.0203 12.6929ZM76.3264 12.6616C75.9628 11.6696 75.7511 10.5855 75.1997 9.70922C74.2669 8.22325 72.3273 7.69591 70.4076 8.17228C68.7017 8.59572 67.5451 9.99348 67.2855 11.9499C67.0038 14.0711 67.8468 16.0589 69.3789 16.896C71.9298 18.2898 76.1526 17.2685 76.3264 12.6616Z" fill="white"/>
<path d="M108.177 12.6518C108.195 16.3765 105.614 18.9544 101.837 18.9838C98.1436 19.0132 95.4489 16.3432 95.4549 12.6596C95.4609 9.13484 98.1795 6.47263 101.779 6.46282C105.501 6.45302 108.157 9.02505 108.175 12.6518H108.177ZM106.25 12.7576C106.27 10.7012 105.449 9.14464 103.879 8.46438C102.173 7.72531 100.491 7.80373 98.9945 8.97016C96.8092 10.6757 96.8432 14.8494 99.0425 16.5431C99.426 16.8392 99.8855 17.0803 100.351 17.2273C103.571 18.2408 106.218 16.2256 106.252 12.7596L106.25 12.7576Z" fill="white"/>
<path d="M7.22115 6.76081C9.14678 6.4746 9.1348 6.48048 9.81197 8.16249C10.7648 10.5267 11.7356 12.8851 12.7044 15.2434C12.7883 15.4473 12.9082 15.6355 13.1339 16.0589C13.5254 15.1454 13.849 14.42 14.1486 13.6869C14.9037 11.8402 15.6408 9.98565 16.3999 8.14092C17.0391 6.58634 17.0491 6.59026 18.9727 6.70984C18.779 7.27051 18.6272 7.81942 18.4034 8.33696C16.1921 13.4693 13.9729 18.5996 11.7496 23.728C11.1503 25.11 11.0325 25.161 9.25865 24.8317C9.73007 23.7084 10.1795 22.6008 10.6569 21.5069C12.4168 17.4665 12.3548 18.9603 10.7149 15.0611C9.66415 12.5596 8.5655 10.0778 7.49281 7.58417C7.38095 7.32344 7.31303 7.04311 7.22115 6.76277V6.76081Z" fill="white"/>
<path d="M210.612 9.82881C209.677 9.97584 208.93 10.2836 208.412 9.12699C207.929 8.04878 206.758 7.89391 205.646 8.01741C204.795 8.11151 204.016 8.37224 203.74 9.32891C203.44 10.362 203.75 11.0795 204.789 11.4108C205.989 11.7931 207.23 12.0539 208.434 12.4283C210.17 12.9654 211.057 14.0593 210.997 15.4885C210.929 17.1136 209.829 18.5055 208.075 18.729C206.758 18.8976 205.344 18.8623 204.06 18.5643C202.673 18.2428 201.8 17.1763 201.537 15.6688C202.472 15.3669 203.155 15.263 203.742 16.2804C204.555 17.688 207.489 17.8801 208.628 16.7157C209.361 15.9668 209.249 14.5867 208.306 14.0848C207.589 13.7045 206.758 13.5261 205.969 13.285C205.242 13.0635 204.489 12.9145 203.77 12.6694C202.44 12.2166 201.657 11.3285 201.715 9.8837C201.772 8.42909 202.504 7.39401 203.902 6.90979C205.558 6.3354 207.232 6.24718 208.814 7.14896C209.805 7.71355 210.428 8.5624 210.614 9.82881H210.612Z" fill="white"/>
<path d="M28.0796 6.65495C28.3892 8.10759 28.3233 8.18797 26.9949 8.19581C24.484 8.20757 24.8755 7.98213 24.8435 10.362C24.8236 11.8951 24.8216 13.4281 24.8435 14.9611C24.8655 16.6059 25.5327 17.2508 27.2146 17.2822C27.7599 17.292 28.2693 17.2156 28.2773 18.0389C28.2853 18.8584 27.8059 18.9289 27.1926 18.9427C24.49 19.0015 22.79 17.835 22.9079 14.9552C22.9838 13.0987 22.8879 11.2364 22.9339 9.37793C22.9558 8.51339 22.7061 8.13504 21.7553 8.17229C20.4909 8.22326 20.4489 8.11544 20.7086 6.65887C21.0961 6.65887 21.5176 6.61966 21.9291 6.66671C22.7461 6.75885 22.9818 6.38637 22.9459 5.64339C22.9059 4.7965 22.9558 3.94765 22.9439 3.10076C22.9319 2.34209 23.4792 2.41463 23.9766 2.39698C24.484 2.37738 24.8995 2.41267 24.8655 3.10272C24.8216 3.98098 24.8795 4.86511 24.8375 5.74337C24.8056 6.41186 25.0413 6.702 25.7484 6.66475C26.5095 6.62554 27.2725 6.65495 28.0816 6.65495H28.0796Z" fill="white"/>
<path d="M110.858 9.374C110.858 6.63534 110.888 3.89472 110.84 1.15802C110.826 0.358177 111.116 0.144495 111.877 0.162139C112.6 0.177822 112.943 0.328772 112.937 1.15213C112.903 6.69611 112.907 12.2381 112.937 17.7821C112.941 18.5917 112.618 18.7643 111.875 18.7701C111.124 18.776 110.818 18.5898 110.832 17.788C110.876 14.9846 110.85 12.1793 110.85 9.37596C110.852 9.37596 110.854 9.37596 110.858 9.37596V9.374Z" fill="white"/>
<path d="M188.569 6.79217C189.633 6.59875 190.319 7.05944 190.628 8.17425C191.154 7.78805 191.623 7.33716 192.182 7.06271C192.744 6.78629 193.395 6.68631 194.006 6.50792C194.449 8.01154 194.388 8.11936 193.079 8.45262C191.463 8.86234 190.518 10.1229 190.494 11.9637C190.47 13.8868 190.462 15.8119 190.494 17.7351C190.506 18.4506 190.35 18.8015 189.51 18.7819C188.742 18.7643 188.555 18.4761 188.559 17.786C188.581 14.1377 188.569 10.4914 188.569 6.79413V6.79217Z" fill="white"/>
<path d="M0.00400043 6.70592H1.75985C1.82776 7.18229 1.89168 7.64887 1.9636 8.15857C2.71268 7.67631 3.37786 7.16465 4.11895 6.80786C4.49449 6.6275 5.03383 6.64319 5.44932 6.75297C5.59115 6.79022 5.66905 7.40774 5.60313 7.72532C5.55319 7.95861 5.24158 8.28991 5.01385 8.3154C2.95438 8.54868 1.80979 10.2777 1.8817 12.3087C1.94762 14.2005 1.87171 16.0942 1.89168 17.988C1.89768 18.6114 1.60803 18.7898 1.03873 18.7525C0.557322 18.7192 -0.00199221 18.874 5.33514e-06 18.0821C0.00999308 14.3318 0.00400043 10.5816 0.00400043 6.70592Z" fill="white"/>
<path d="M196.567 6.70592H198.341C198.369 7.03722 198.413 7.31952 198.413 7.60378C198.417 10.9306 198.415 14.2554 198.417 17.5822C198.417 18.2173 198.498 18.7976 197.482 18.7878C196.541 18.778 196.493 18.3291 196.499 17.6292C196.517 14.3358 196.505 11.0423 196.509 7.74885C196.509 7.4293 196.545 7.11172 196.569 6.70592H196.567Z" fill="white"/>
<path d="M145.689 13.8888C145.689 15.2238 145.699 16.5608 145.685 17.8958C145.677 18.6564 145.004 19.1093 144.287 18.8584C143.909 18.7251 143.692 18.4428 143.654 18.0526C143.63 17.8076 143.648 17.5606 143.648 17.3136C143.648 14.867 143.646 12.4204 143.644 9.97388C143.644 9.30147 144.041 8.85842 144.651 8.85842C145.288 8.85842 145.689 9.28971 145.689 9.98368C145.689 11.2854 145.689 12.5871 145.689 13.8888Z" fill="white"/>
<path d="M148.975 11.6265C148.975 12.7498 148.989 13.8731 148.971 14.9944C148.959 15.7845 148.22 16.2511 147.513 15.9315C147.11 15.7492 146.926 15.412 146.926 14.9827C146.922 13.2536 146.92 11.5246 146.922 9.7955C146.922 9.25639 146.902 8.71532 146.944 8.18014C147.006 7.38814 147.823 6.9941 148.506 7.40774C148.849 7.61554 148.975 7.94097 148.975 8.3252C148.975 9.42498 148.975 10.5267 148.975 11.6265Z" fill="white"/>
<path d="M142.389 5.05136C142.389 6.12761 142.397 7.20582 142.385 8.28208C142.379 8.84863 141.944 9.26227 141.385 9.26619C140.811 9.27207 140.384 8.87999 140.35 8.3154C140.344 8.21542 140.344 8.11348 140.344 8.0135C140.344 5.9943 140.344 3.97314 140.342 1.95394C140.342 1.53638 140.442 1.17175 140.841 0.954144C141.201 0.758105 141.564 0.769867 141.918 0.973748C142.269 1.17763 142.387 1.50697 142.389 1.88729C142.389 2.94198 142.389 3.99667 142.389 5.05136Z" fill="white"/>
<path d="M150.204 3.85355C150.204 2.92041 150.204 1.98923 150.204 1.05608C150.204 0.622834 150.395 0.289568 150.795 0.105292C151.163 -0.0633015 151.53 -0.0299749 151.866 0.209193C152.163 0.420914 152.265 0.730656 152.267 1.06392C152.275 2.92825 152.279 4.79258 152.263 6.65887C152.257 7.26071 151.802 7.67239 151.236 7.66063C150.645 7.64887 150.222 7.22934 150.214 6.61574C150.204 5.69436 150.212 4.77298 150.212 3.85159C150.21 3.85159 150.206 3.85159 150.204 3.85159V3.85355Z" fill="white"/>
<path d="M139.089 3.82806C139.089 4.76121 139.091 5.69239 139.089 6.62554C139.087 7.2215 138.68 7.64494 138.105 7.65866C137.515 7.67435 137.058 7.25286 137.054 6.64906C137.044 4.78473 137.044 2.9204 137.054 1.05411C137.058 0.401305 137.477 -0.000574764 138.097 0.0111876C138.698 0.0209895 139.085 0.42875 139.089 1.06392C139.093 1.9853 139.089 2.90668 139.089 3.82806Z" fill="white"/>
<path d="M153.494 6.24523C153.494 5.61595 153.492 4.98862 153.494 4.35934C153.498 3.69281 153.901 3.23604 154.494 3.22035C155.116 3.20467 155.553 3.6438 155.559 4.33189C155.569 5.61203 155.567 6.8902 155.555 8.17034C155.549 8.85255 155.136 9.27403 154.524 9.27011C153.907 9.26619 153.498 8.8153 153.494 8.12917C153.49 7.49988 153.494 6.87256 153.494 6.24327V6.24523Z" fill="white"/>
<path d="M135.795 6.27071C135.795 6.93332 135.797 7.59397 135.795 8.25658C135.791 8.84862 135.382 9.26226 134.799 9.27402C134.235 9.28383 133.772 8.86038 133.766 8.28207C133.752 6.93724 133.75 5.59045 133.762 4.24563C133.768 3.62418 134.219 3.22623 134.845 3.24191C135.426 3.25563 135.793 3.65947 135.795 4.28876C135.795 4.95137 135.795 5.61202 135.795 6.27463V6.27071Z" fill="white"/>
<path d="M142.387 13.2654C142.387 13.8496 142.393 14.4318 142.387 15.016C142.379 15.6198 141.946 16.0334 141.345 16.0236C140.765 16.0138 140.35 15.5943 140.348 15.0023C140.344 13.8574 140.344 12.7125 140.35 11.5696C140.354 10.8953 140.757 10.4699 141.373 10.4679C141.97 10.4679 142.389 10.9247 142.391 11.5814C142.391 12.1421 142.391 12.7027 142.391 13.2654C142.391 13.2654 142.387 13.2654 142.385 13.2654H142.387Z" fill="white"/>
<path d="M152.259 10.8208C152.259 11.1795 152.283 11.5402 152.253 11.897C152.205 12.4597 151.818 12.7929 151.254 12.7968C150.677 12.8008 150.268 12.491 150.236 11.9245C150.194 11.1991 150.2 10.4659 150.242 9.7406C150.274 9.19561 150.715 8.85451 151.262 8.86039C151.794 8.86627 152.219 9.24266 152.261 9.77981C152.287 10.1248 152.267 10.4757 152.267 10.8227C152.265 10.8227 152.263 10.8227 152.261 10.8227L152.259 10.8208Z" fill="white"/>
<path d="M139.095 10.8286C139.095 11.154 139.103 11.4814 139.095 11.8068C139.079 12.3891 138.674 12.791 138.107 12.7988C137.501 12.8066 137.076 12.4303 137.058 11.8343C137.04 11.1717 137.036 10.5091 137.058 9.84646C137.076 9.2505 137.519 8.84862 138.099 8.86038C138.676 8.87215 139.081 9.28579 139.095 9.88567C139.103 10.1993 139.095 10.515 139.095 10.8286Z" fill="white"/>
<path d="M143.64 5.86296C143.64 5.59438 143.636 5.32581 143.64 5.05724C143.65 4.4652 144.051 4.04764 144.631 4.02411C145.164 4.00059 145.647 4.41227 145.675 4.96902C145.705 5.56106 145.705 6.15701 145.677 6.74905C145.653 7.27444 145.162 7.68023 144.635 7.66259C144.063 7.64299 143.656 7.23719 143.646 6.67064C143.64 6.40206 143.646 6.13349 143.646 5.86492C143.644 5.86492 143.64 5.86492 143.638 5.86492L143.64 5.86296Z" fill="white"/>
</svg>
