<svg width="50" height="63" viewBox="0 0 50 63" fill="none" xmlns="http://www.w3.org/2000/svg">
<path d="M23.9838 20.2722C24.0391 20.2673 24.0944 20.2627 24.1498 20.2586C27.4518 20.0102 30.3496 21.2297 32.8252 23.3458C32.1971 23.675 31.3302 23.9597 30.6605 24.2446C29.669 24.6664 29.0904 25.0419 28.2357 25.6718C27.6389 25.3443 26.6473 24.9852 26.0012 25.1832C25.5424 25.3236 24.5668 25.6078 24.8137 24.6042C25.5842 23.5485 28.1998 24.7695 28.6556 24.5533C28.6359 24.3329 28.3884 24.0206 28.2292 23.8976C27.4974 23.332 26.8453 23.1433 25.9364 23.1994C23.4594 23.3521 21.2135 24.4357 19.0631 25.5842C18.6794 25.7891 17.9051 26.1406 17.6433 26.4271C17.6386 26.7863 17.737 26.4635 17.9074 26.8817C18.4212 28.1425 19.2816 29.5401 19.4782 30.9032L19.4834 30.9409C20.7993 29.7961 24.3066 28.5326 26.0929 28.3463C26.4532 28.2844 27.9697 28.5744 28.2182 28.4304C29.8642 27.477 31.3128 26.8723 33.19 26.4542C33.0885 25.9644 33.0363 25.6755 32.9918 25.1752C32.2521 25.5313 31.3364 25.8183 30.6593 26.1343C29.1245 26.8506 28.4349 27.6273 26.6886 27.1669C26.3646 27.0814 25.4 27.67 25.1343 26.8897C25.287 25.823 27.5235 26.0853 28.232 26.5429C29.0465 26.1014 29.821 25.6668 30.654 25.2496C31.6099 24.7709 32.4818 24.6425 33.1258 23.7918C33.3252 23.8647 33.4307 23.9926 33.5587 24.1609C36.0834 27.4764 36.6545 29.7728 36.1441 33.8254C36.0506 34.2695 36.0593 34.5936 35.5858 34.8045C33.9458 35.5845 32.121 36.3704 30.6015 37.3774C28.92 38.4919 27.4225 39.1756 25.6068 40.0144C29.1824 40.0722 30.2752 38.5048 33.2878 36.8186C33.8233 36.5189 34.7995 35.9588 35.3819 35.8053L35.4788 35.9152C35.4492 36.1703 35.408 36.1453 35.3078 36.3461C32.946 41.08 28.2003 43.6651 22.9372 42.816C22.7534 42.4311 22.5827 42.1476 22.3645 41.7842L21.167 41.3004C21.2783 41.5727 21.5377 42.0816 21.491 42.3384L21.3466 42.4191C20.4326 42.3706 17.5106 40.3157 16.8407 39.6109C16.4633 39.2666 16.1789 38.8387 15.8599 38.44C12.8769 34.7115 12.6339 28.4364 15.945 24.7682C15.9753 25.1942 15.8938 26.4989 15.9683 26.6251C17.0874 26.55 16.5271 27.7451 17.3813 28.1052C17.5253 28.166 17.813 28.2228 17.9592 28.1572C17.8389 27.4837 17.3167 26.9287 17.3695 26.2713C17.388 26.0411 17.6183 25.9423 17.8091 25.8146C17.7842 25.5063 16.6278 24.4797 16.34 24.2042C17.7402 22.1748 21.5249 20.347 23.9838 20.2722ZM21.3251 37.5206C21.1578 37.6901 21.242 37.6497 21.01 37.6763C20.9257 37.1842 20.7381 36.2173 20.333 35.8822C20.2771 35.836 19.6662 35.6486 19.5298 35.5949C19.4478 35.7675 20.5438 39.2334 20.7615 39.5776C20.8197 39.6697 21.7409 39.9226 21.9922 40.0323C21.7372 39.5879 21.4752 39.193 21.3694 38.6889L21.4773 38.4938L21.6781 38.4464C22.7129 37.4353 23.4651 37.0509 24.8304 36.5698C24.8645 36.5621 24.9447 36.5785 24.9852 36.5839L25.0165 36.8327C25.1525 36.918 26.7911 36.1261 27.0557 36.0236C27.477 35.8613 27.9141 35.743 28.3599 35.6706C28.5245 34.9771 28.9965 34.6078 29.601 34.2552C30.8686 33.5157 33.0699 32.495 34.4892 32.2324C34.3117 31.8668 34.1241 31.5016 33.9879 31.1193C33.0388 31.7566 31.2948 32.092 30.2591 32.7115C29.6933 33.05 29.0756 33.5666 28.4599 33.7074C28.3393 33.7333 28.2686 33.3828 27.9438 33.366C27.5308 33.3446 27.134 33.3649 26.7206 33.3892C24.3188 33.4062 22.8303 34.7361 20.8734 35.6501C20.9831 35.9826 21.0975 36.3137 21.2163 36.6432C21.885 36.0962 22.3851 35.8705 23.1258 35.4832C24.9693 34.5193 25.9612 34.0833 28.0386 34.0594C28.1826 34.3045 28.3656 34.5475 28.341 34.8227L28.2291 34.9796L28.1554 34.9665C27.1237 34.7915 25.1246 35.5609 24.181 35.9902C23.2122 36.4309 22.2912 37.086 21.3251 37.5206ZM28.6468 35.8162C28.3993 35.911 28.0681 36.1391 27.8629 36.3047C27.3828 36.6922 24.9954 37.7251 24.8313 38.066C24.9137 38.3503 24.9845 38.8943 25.1504 39.0847C25.4974 39.0157 26.3698 38.571 26.7196 38.4025C28.8003 37.3999 30.701 36.1212 32.7699 35.0827C33.4888 34.7219 34.2865 34.2178 35.0575 33.9842C35.1778 33.9478 35.1384 33.9578 35.2396 33.8478C35.1244 33.5471 34.8965 33.2051 34.7242 32.9247C34.1118 32.7782 30.2034 34.8788 29.4904 35.3528C29.2553 35.5092 28.9195 35.7189 28.6468 35.8162ZM20.3589 33.6017C20.4499 33.8984 20.5882 34.492 20.8017 34.6595C20.8927 34.6085 20.9505 34.5911 21.0114 34.5132C22.1186 33.6643 26.1078 32.2037 27.5586 32.4718C27.904 32.5356 28.0067 32.6073 28.2663 32.8324C29.6228 31.9563 31.1734 30.9376 32.7534 30.547C33.1578 30.4471 33.6782 30.4405 33.7705 30.1485C33.6952 29.8742 33.6313 29.6332 33.5738 29.3548C33.3911 29.276 33.4836 29.2889 33.2864 29.3143C32.2462 29.6048 31.1582 29.8801 30.1818 30.3489C29.5284 30.6627 28.72 31.287 28.0519 31.5278C27.6109 31.6867 26.6573 31.5232 26.1 31.6001C24.0167 31.8879 22.2105 32.6598 20.3589 33.6017ZM33.3535 28.1962C33.3279 27.9437 33.3221 27.5881 33.1885 27.39L33.0296 27.4029C31.4608 27.655 30.1012 28.4454 28.7507 29.2252C28.4675 29.3888 28.2626 29.4941 27.9448 29.5898C25.1447 28.8224 22.2853 30.349 19.7813 31.6319C19.8518 31.8669 20.0454 32.5902 20.1616 32.7548C21.8733 31.6293 24.4831 30.5639 26.5336 30.3182C26.8691 30.2779 27.9049 30.5281 28.0626 30.4278C29.824 29.3077 31.3446 28.7774 33.3535 28.1962ZM17.5202 29.7338C17.8918 30.7178 18.4898 33.0446 18.9492 33.8204C19.2451 33.9324 19.5984 34.022 19.915 34.0271C19.6033 33.2006 18.8695 30.3989 18.5061 29.9668C18.1458 29.8645 17.8744 29.8195 17.5202 29.7338Z" fill="#FEFEFE"/>
<path d="M28.3599 35.6706L28.6468 35.8162C28.3993 35.911 28.0681 36.1391 27.8629 36.3047C27.3828 36.6922 24.9954 37.7251 24.8313 38.066C24.6718 37.5921 24.9663 37.083 24.8304 36.5698C24.8645 36.5621 24.9447 36.5785 24.9852 36.5839L25.0165 36.8327C25.1525 36.918 26.7911 36.1261 27.0557 36.0236C27.477 35.8613 27.9141 35.743 28.3599 35.6706Z" fill="#FDFBFD"/>
<path d="M21.3251 37.5206C21.3908 37.7153 21.5722 38.3151 21.6781 38.4464L21.4773 38.4938L21.3694 38.6889C21.3431 38.4355 21.1192 37.9226 21.01 37.6763C21.242 37.6497 21.1578 37.6901 21.3251 37.5206Z" fill="#FEFEFE" fill-opacity="0.670588"/>
<path d="M43.7372 43.24C43.2333 43.0846 42.2537 42.81 41.8477 42.5152L41.8005 42.3964C41.9852 42.2029 42.9578 41.5695 43.2325 41.3819C44.0153 40.8471 44.674 40.3354 45.4083 39.7461C46.7533 38.6668 47.5663 37.3216 48.7124 36.0714C48.7637 36.4629 48.815 36.854 48.89 37.2431C49.3847 39.8105 49.2385 42.488 48.5496 45.0063C48.3397 45.7731 47.993 46.4905 47.7512 47.2453C47.2822 46.7049 46.7983 45.7295 46.4915 45.0681C45.8726 46.4915 43.9832 49.1571 42.9788 50.3595C44.1176 51.7959 46.0575 53.2857 46.8513 54.6731L46.5202 55.3595C46.2959 55.5094 46.0468 55.6839 45.8182 55.8207C44.5797 54.8146 42.9081 52.9844 41.8675 51.7338C38.7429 54.7394 36.5557 56.314 32.4231 57.8142C30.6919 58.4426 28.8146 58.783 27.373 59.9859C26.4475 60.7581 25.717 62.0256 25.0081 63C22.8654 59.695 21.6951 59.0264 17.9891 57.9416C17.0534 57.6677 15.0789 56.7825 14.1634 56.3355C11.8536 55.2077 9.94276 53.51 8.12711 51.7188C8.06787 51.6646 7.94531 51.5254 7.88499 51.4606C7.57383 51.5383 4.67492 54.6033 4.33437 55.0626C4.11107 55.4827 4.172 55.4964 3.66817 55.4458C3.51714 55.2741 3.38385 55.0408 3.36017 54.8097C3.27185 53.9478 6.32373 51.185 7.0177 50.3577C5.93929 48.9513 4.24906 46.6946 3.53665 45.0761C3.34074 45.4395 2.56384 46.9676 2.32018 47.122L2.19461 47.0315C0.987927 44.5739 0.645608 41.3699 0.876006 38.6624C0.94774 37.8202 1.15284 36.9228 1.2987 36.0789C3.0278 38.6899 5.60576 40.9488 8.37047 42.4181C7.69747 42.8015 6.98653 43.0129 6.25531 43.2664C6.80195 44.3901 7.24293 45.549 7.98511 46.571C8.3943 47.1344 8.80581 47.6951 9.21994 48.2549C9.94392 47.0694 11.8904 45.4483 12.8931 44.2984C13.4461 44.4295 13.457 44.6181 13.8244 44.7775C13.0327 46.0168 10.6008 48.0798 10.1075 48.9936L10.0823 49.1127C10.1857 49.1585 10.2511 49.1896 10.3619 49.2211C10.622 49.8584 13.9259 51.8043 14.7626 52.0848C19.0475 53.5218 21.1551 54.503 23.769 50.3037C24.2235 50.1803 25.8551 50.1754 26.2952 50.3376C27.0068 51.6963 28.4757 53.4056 30.1403 53.3154C33.1258 53.1536 37.4531 51.4108 39.5956 49.3485C39.5953 49.2672 39.611 49.1877 39.6226 49.1064L39.9033 49.0531C39.888 48.9985 39.8369 48.8206 39.8081 48.7875C39.2816 48.1824 36.6795 45.1575 36.1275 45.0011L36.0892 44.9104C36.1113 44.6766 36.5646 44.2071 36.7439 44.038C37.3981 44.5413 40.3609 47.5477 40.8674 48.2356C41.2671 47.4997 41.9614 46.6929 42.4434 45.9212C43.0575 44.9383 43.265 44.1737 43.7372 43.24ZM44.7405 42.2958C44.4924 42.293 44.1242 42.2586 43.9241 42.3813C44.1114 42.519 44.5303 42.4813 44.8014 42.4916C44.8361 42.5029 44.8706 42.5146 44.9049 42.527C45.4439 42.7236 45.7128 43.0807 45.4115 43.6357C44.1313 45.9935 42.8884 48.3863 40.8771 50.2208C40.2969 50.7498 39.7005 51.4871 39.0736 51.9726C37.3209 53.33 35.375 54.5633 33.2995 55.3611C31.8442 55.9289 30.4059 56.1139 28.9169 56.5134C28.7446 56.5597 28.6199 56.6364 28.5513 56.7961L28.6513 56.8851C28.9484 56.9293 29.6039 56.6528 30.0726 56.5806C34.3256 55.8833 38.2753 53.5253 41.2401 50.4644C43.2652 48.3736 44.5248 46.2024 45.9268 43.6724C46.0358 43.4756 46.0565 43.4518 46.2465 43.3838C46.529 43.426 46.7962 43.687 47.0271 43.8739C46.1164 41.9684 46.981 41.8989 47.5437 39.9678C46.5192 41.3522 46.8215 42.236 44.7405 42.2958ZM4.73554 43.973C4.67985 43.8621 4.62817 43.7494 4.58043 43.635C4.23549 42.8215 4.58884 42.6826 5.31389 42.4714C5.54784 42.4903 5.86154 42.5155 6.06039 42.3999C5.86162 42.2634 5.53457 42.2914 5.27826 42.2864L4.18034 42.2546C3.8529 42.0508 3.72039 41.9261 3.43291 41.6639C3.14196 41.15 2.82001 40.54 2.45617 40.0858C2.59223 40.4402 2.98623 41.533 3.16325 41.7934C3.40021 42.2986 3.50973 42.6373 3.28497 43.1744C3.07185 43.51 2.93216 43.9097 2.78568 44.2816C3.07547 43.982 3.29623 43.6384 3.57514 43.3629C4.05445 43.519 4.09796 43.7122 4.35635 44.1924C4.57711 44.6783 4.79401 45.1145 5.06066 45.5773C8.49812 51.5434 13.9324 55.7765 20.913 56.7525C21.3987 56.8552 21.7103 56.8238 22.2538 57.0075C23.711 57.5002 24.3708 58.8544 25.0013 60.1441C24.9213 58.0063 25.0967 55.2097 24.8886 53.155C24.2751 54.5192 23.6333 56.3139 21.933 56.4798C20.8545 56.4638 18.7171 56.0135 17.6193 55.6637C13.6 54.3831 10.0666 51.6855 7.46098 48.4135C6.57788 47.3044 5.39396 45.207 4.73554 43.973ZM42.1751 51.5094C42.5981 52.0779 45.2395 55.0562 45.7582 55.1834C45.5244 54.707 42.9936 52.0197 42.3926 51.5529C42.3742 51.5386 42.2089 51.5128 42.1751 51.5094Z" fill="#FEFEFE"/>
<path d="M47.5437 39.9678C46.981 41.8989 46.1164 41.9684 47.0271 43.8739C46.7962 43.687 46.529 43.426 46.2465 43.3838C46.0565 43.4518 46.0358 43.4756 45.9268 43.6724C44.5248 46.2024 43.2652 48.3736 41.2401 50.4644C38.2753 53.5253 34.3256 55.8833 30.0726 56.5806C29.6039 56.6528 28.9484 56.9293 28.6513 56.8851L28.5513 56.7961C28.6199 56.6364 28.7446 56.5597 28.9169 56.5134C30.4059 56.1139 31.8442 55.9289 33.2995 55.3611C35.375 54.5633 37.3209 53.33 39.0736 51.9726C39.7005 51.4871 40.2969 50.7498 40.8771 50.2208C42.8884 48.3863 44.1313 45.9935 45.4115 43.6357C45.7128 43.0807 45.4439 42.7236 44.9049 42.527C44.8706 42.5146 44.8361 42.5029 44.8014 42.4916L44.7405 42.2958C46.8215 42.236 46.5192 41.3522 47.5437 39.9678Z" fill="#1F1C20" fill-opacity="0.01"/>
<path d="M4.73554 43.973C5.39396 45.207 6.57788 47.3044 7.46098 48.4135C10.0666 51.6855 13.6 54.3831 17.6193 55.6637C18.7171 56.0135 20.8545 56.4638 21.933 56.4798C21.5366 56.7902 21.2317 56.5324 20.913 56.7525C13.9324 55.7765 8.49812 51.5434 5.06066 45.5773C4.79401 45.1145 4.57711 44.6783 4.35635 44.1924C4.53646 44.1441 4.58413 44.0892 4.73554 43.973Z" fill="#1F1C20" fill-opacity="0.0117647"/>
<path d="M42.1751 51.5094C42.2089 51.5128 42.3742 51.5386 42.3926 51.5529C42.9936 52.0197 45.5244 54.707 45.7582 55.1834C45.2395 55.0562 42.5981 52.0779 42.1751 51.5094Z" fill="#FEFEFE" fill-opacity="0.0862745"/>
<path d="M2.45617 40.0858C2.82001 40.54 3.14196 41.15 3.43291 41.6639L3.16325 41.7934C2.98623 41.533 2.59223 40.4402 2.45617 40.0858Z" fill="#FEFEFE" fill-opacity="0.0431373"/>
<path d="M2.78568 44.2816C2.93216 43.9097 3.07185 43.51 3.28497 43.1744C3.35346 43.22 3.51058 43.3302 3.57514 43.3629C3.29623 43.6384 3.07547 43.982 2.78568 44.2816Z" fill="#FEFEFE" fill-opacity="0.0313725"/>
<path d="M44.8014 42.4916C44.5303 42.4813 44.1114 42.519 43.9241 42.3813C44.1242 42.2586 44.4924 42.293 44.7405 42.2958L44.8014 42.4916Z" fill="#FEFEFE" fill-opacity="0.615686"/>
<path d="M5.27826 42.2864C5.53457 42.2914 5.86162 42.2634 6.06039 42.3999C5.86154 42.5155 5.54784 42.4903 5.31389 42.4714L5.27826 42.2864Z" fill="#FEFEFE" fill-opacity="0.517647"/>
<path d="M22.8503 7.32446C21.8981 6.46006 20.9838 5.36012 21.0258 4.02757C21.1946 -1.33944 28.8484 -1.33624 29.0255 3.99949C29.0734 5.44343 28.2392 6.45006 27.1729 7.364C28.3377 7.46538 30.145 8.03208 31.0576 8.80909C31.3499 9.05802 31.2877 10.6609 31.2591 10.9988C31.1586 12.1876 27.6971 13.8364 26.68 13.5859C26.7501 13.186 26.6248 12.9826 26.3035 12.7848C25.9243 12.7948 23.709 12.783 23.5421 12.8547C23.3466 13.0315 23.3398 13.1034 23.272 13.3482C23.1621 13.4739 23.0611 13.6388 22.8756 13.6181C21.6524 13.4817 19.4789 12.366 18.7853 11.3626C18.7524 10.7296 18.5866 9.12487 18.9944 8.74094C19.7269 8.05124 21.8968 7.44877 22.8503 7.32446ZM25.8091 2.28054L25.0514 2.18077C23.9111 2.30801 23.1231 3.02117 23.2877 4.22772C23.3493 4.70973 23.6013 5.1472 23.9875 5.44328C24.4232 5.77113 24.6693 5.77805 25.1936 5.77521C26.2382 5.69667 26.3005 5.22543 26.8772 4.41742C26.8582 3.99526 26.8676 3.60956 26.6871 3.22602L26.667 3.18256C26.5096 2.85017 26.1103 2.48878 25.8091 2.28054ZM28.8154 9.14879C29.2224 9.14879 29.6997 9.17918 30.0776 9.05141C29.8955 8.79886 26.3231 8.89433 25.7995 8.89686C23.7554 8.89986 21.7112 8.88479 19.6673 8.85156C19.3287 9.16518 19.1465 9.97796 19.492 10.2784C19.7048 10.0235 19.3611 9.13787 20.2875 9.12794C21.109 9.11925 21.9428 9.1501 22.7643 9.15079L28.8154 9.14879ZM30.3618 11.4169L30.3292 11.2529C30.0219 11.1307 20.8779 11.1601 19.6992 11.1855L19.5351 11.2877L19.5623 11.4001C20.0901 11.5323 29.5385 11.5135 30.3618 11.4169ZM21.8003 4.97504C21.9379 5.48159 21.9986 5.69097 22.3912 6.04952C22.4481 5.78336 22.0864 5.32828 22.0165 4.98312C21.5085 3.40056 22.3228 3.03186 22.4507 1.89485L22.4578 1.89285L22.364 1.88162C21.6239 2.75209 21.4782 3.90903 21.8003 4.97504ZM27.18 4.45173C26.9925 4.94673 26.8754 5.25858 26.7511 5.77328C26.9703 5.41036 27.1737 5.06912 27.3773 4.69581C27.4297 4.27303 27.3894 3.80187 27.3477 3.37764L27.2475 3.31848C27.256 3.25902 27.2636 3.21502 27.2747 3.15679C27.1637 3.54002 27.2204 3.98734 27.18 4.45173Z" fill="#FEFEFE"/>
<path d="M19.6685 8.85153C21.7124 8.88476 23.7566 8.89984 25.8007 8.89684C26.3243 8.8943 29.8967 8.79884 30.0788 9.05138C29.7009 9.17915 29.2236 9.14877 28.8166 9.14877L22.7655 9.15077C21.944 9.15008 21.1102 9.11923 20.2887 9.12792C19.3623 9.13784 19.706 10.0235 19.4932 10.2784C19.1477 9.97793 19.3299 9.16515 19.6685 8.85153Z" fill="#FEFEFE" fill-opacity="0.0980392"/>
<path d="M19.6992 11.1855C20.8779 11.1601 30.0219 11.1307 30.3292 11.2529L30.3618 11.4169C29.5385 11.5135 20.0901 11.5323 19.5623 11.4001L19.5351 11.2877L19.6992 11.1855Z" fill="#FEFEFE" fill-opacity="0.0470588"/>
<path d="M21.8011 4.97491C21.479 3.9089 21.6247 2.75196 22.3648 1.88149L22.4586 1.89272L22.4515 1.89472C22.3236 3.03173 21.5093 3.40043 22.0173 4.98299C21.8961 5.02914 21.9583 5.01276 21.8011 4.97491Z" fill="#AFAEAF" fill-opacity="0.0745098"/>
<path d="M27.1812 4.45168C27.2215 3.98729 27.1648 3.53998 27.2759 3.15674C27.2648 3.21497 27.2572 3.25897 27.2487 3.31844L27.3489 3.37759C27.3906 3.80183 27.4309 4.27299 27.3784 4.69576L27.3309 4.52676L27.1812 4.45168Z" fill="#FEFEFE" fill-opacity="0.505882"/>
<path d="M22.0173 4.98299C22.0871 5.32815 22.4489 5.7833 22.392 6.04945C21.9993 5.69091 21.9387 5.48146 21.8011 4.97491C21.9583 5.01276 21.8961 5.02914 22.0173 4.98299Z" fill="#FEFEFE" fill-opacity="0.270588"/>
<path d="M27.1812 4.45168L27.3309 4.52676L27.3784 4.69576C27.1749 5.06908 26.9713 5.41031 26.7521 5.77324C26.8765 5.25854 26.9937 4.94669 27.1812 4.45168Z" fill="#FEFEFE" fill-opacity="0.145098"/>
<path d="M43.7839 5.80326C45.5569 6.69174 48.6084 9.78586 50 11.2832C49.1433 12.2993 43.0651 18.1927 42.2719 18.5281C40.6174 19.2277 39.0791 18.8348 37.5212 20.0273C37.0999 19.5888 37.0383 19.2892 36.4445 18.8211C36.529 18.311 36.834 17.9124 36.9534 17.3027C37.138 16.36 37.0259 14.8442 37.3496 14.0111C37.5475 13.5017 38.5844 12.3017 38.9655 11.8089C40.5338 9.78078 42.187 7.80891 43.7839 5.80326ZM39.1963 16.3964C38.9472 16.2736 38.812 16.152 38.5725 16.1747C38.6053 16.4141 38.7595 16.5852 38.9028 16.7899C38.5942 17.4543 37.5367 18.3731 37.6228 18.7244L37.6953 18.7134C38.0882 18.3231 38.9845 17.5126 39.4465 17.185C39.7562 17.4481 40.019 17.6719 40.352 17.9101L39.8025 16.911C40.2808 16.0299 40.4313 15.9202 40.9871 15.2207C41.3966 14.7053 43.2939 12.7983 43.4346 12.409L43.3995 12.391C42.1911 13.3415 40.2011 15.8136 39.1963 16.3964ZM37.8207 14.6348C38.5477 13.4059 43.8595 7.59429 43.8747 7.08551L43.7595 6.97228C42.18 8.62338 40.6502 10.8208 39.1071 12.5454C38.6796 13.0231 37.8599 13.8732 37.7176 14.463C37.7526 14.5322 37.7688 14.5838 37.8207 14.6348Z" fill="#FEFEFE"/>
<path d="M43.3995 12.391L43.4346 12.409C43.2939 12.7983 41.3966 14.7053 40.9871 15.2207C40.4313 15.9202 40.2808 16.0299 39.8025 16.911L40.352 17.9101C40.019 17.6719 39.7562 17.4481 39.4465 17.185C38.9845 17.5126 38.0882 18.3231 37.6953 18.7134L37.6228 18.7244C37.5367 18.3731 38.5942 17.4543 38.9028 16.7899C38.7595 16.5852 38.6053 16.4141 38.5725 16.1747C38.812 16.152 38.9472 16.2736 39.1963 16.3964C40.2011 15.8136 42.1911 13.3415 43.3995 12.391Z" fill="#777577" fill-opacity="0.0235294"/>
<path d="M43.7595 6.97228L43.8747 7.08551C43.8595 7.59429 38.5477 13.4059 37.8207 14.6348C37.7688 14.5838 37.7526 14.5322 37.7176 14.463C37.8599 13.8732 38.6796 13.0231 39.1071 12.5454C40.6502 10.8208 42.18 8.62338 43.7595 6.97228Z" fill="#FEFEFE" fill-opacity="0.0117647"/>
<path d="M6.11747 5.75444C6.87747 6.50521 12.3866 13.3075 12.6532 14.0639C13.1549 15.4874 12.5607 17.3101 13.5123 18.5856C13.3873 18.8577 13.2992 19.0137 13.0608 19.2112C12.7941 19.3401 12.6743 19.3847 12.4592 19.5909C11.905 19.9182 11.4101 19.2724 10.8551 19.1796C8.65 18.8107 7.76474 18.9576 6.16367 17.2491C5.27895 16.305 3.8674 15.2827 2.99533 14.2425C2.08531 13.2433 0.880789 12.4411 0 11.3086C1.15778 9.92626 2.67569 8.44763 4.05901 7.27315C4.6163 6.80006 5.48652 6.25475 6.11747 5.75444ZM8.34525 18.2171C8.25569 17.9927 7.46484 17.3755 7.18762 17.1095C5.89178 15.848 4.6102 14.5721 3.34305 13.2819C3.02372 12.9592 1.61225 11.517 1.30117 11.3076C1.28188 11.5232 1.32014 11.7338 1.49948 11.8707C2.60048 12.7118 7.38671 18.2008 8.34525 18.2171ZM7.14381 13.1772C7.44 13.5125 9.68058 16.1595 9.81032 16.2357C10.2933 17.011 10.0566 17.1638 9.61417 17.8849L10.5894 17.2301C10.7686 17.3794 11.135 17.7029 11.3132 17.8219C11.7694 18.2528 12.1334 18.5998 12.6309 18.9796C12.2921 18.3906 12.0824 18.16 11.6301 17.674C11.4347 17.4671 11.1833 17.0244 11.0258 16.768C11.2817 16.5092 11.5239 16.1891 11.7528 15.9026C11.0349 16.1903 10.954 16.5129 10.2501 16.0573C9.39287 15.2946 8.13698 13.9029 7.22904 13.0174C6.93748 12.7109 6.79879 12.5561 6.44668 12.3067C6.71657 12.7227 6.80087 12.8229 7.14381 13.1772Z" fill="#FEFEFE"/>
<path d="M1.30117 11.3076C1.61225 11.517 3.02372 12.9592 3.34305 13.2819C4.6102 14.5721 5.89178 15.848 7.18762 17.1095C7.46484 17.3755 8.25569 17.9927 8.34525 18.2171C7.38671 18.2008 2.60048 12.7118 1.49948 11.8707C1.32014 11.7338 1.28188 11.5232 1.30117 11.3076Z" fill="#FEFEFE" fill-opacity="0.0235294"/>
<path d="M7.22904 13.0174C8.13698 13.9029 9.39287 15.2946 10.2501 16.0573C10.0674 16.1962 10.0386 16.2021 9.81032 16.2357C9.68058 16.1595 7.44 13.5125 7.14381 13.1772L7.22904 13.0174Z" fill="#AFAEAF" fill-opacity="0.0313725"/>
<path d="M11.6301 17.674C12.0824 18.16 12.2921 18.3906 12.6309 18.9796C12.1334 18.5998 11.7694 18.2528 11.3132 17.8219L11.6301 17.674Z" fill="#FEFEFE" fill-opacity="0.0313725"/>
<path d="M6.44668 12.3067C6.79879 12.5561 6.93748 12.7109 7.22904 13.0174L7.14381 13.1772C6.80087 12.8229 6.71657 12.7227 6.44668 12.3067Z" fill="#FEFEFE" fill-opacity="0.407843"/>
<path d="M23.4138 13.432C23.6297 13.1396 23.5641 13.1397 23.8577 13.0134C24.4378 13.2312 24.2223 15.6158 24.2112 16.2338L23.6498 16.303C23.4545 16.2314 23.3427 16.1871 23.1535 16.3465C19.4151 16.6878 15.7586 18.5971 13.2928 21.448C10.7527 24.3847 10.305 26.396 9.43375 30.024C9.60822 30.3299 9.62542 30.252 9.59418 30.5488C9.42904 30.7568 9.35499 30.785 9.1293 30.9071C8.51763 30.842 7.42742 30.752 6.87414 30.988C6.6098 30.7936 6.42376 30.6211 6.43124 30.2869C6.95212 29.7226 8.52465 30.1877 9.21121 30.0062C9.28303 29.7974 9.07515 29.7779 8.99084 29.5728C8.9279 29.4199 8.94171 28.966 8.94171 28.7858C9.33586 28.2784 9.41886 27.3444 9.62727 26.7293C9.96573 25.7303 10.4137 25.1049 10.5099 24.0212C11.1744 23.3434 11.1962 23.0833 11.6617 22.3046C11.7494 22.158 12.4649 21.4085 12.6383 21.2174C12.8142 21.0235 13.4049 20.251 13.5209 20.1452C14.4846 19.2655 14.7633 19.3031 15.5646 18.221C16.8458 17.7964 16.7061 17.7945 17.8532 17.0005C19.1869 16.9299 19.1168 16.6028 20.1835 16.1671C20.4316 16.0658 22.6307 15.6393 22.9727 15.6265C23.1226 15.7921 23.2378 15.9107 23.401 16.0644C23.5448 15.8671 23.4136 15.5838 23.4161 15.3206C23.4221 14.691 23.4188 14.0616 23.4138 13.432Z" fill="#FEFEFE"/>
<path d="M40.2931 33.2869C40.6287 33.2897 40.5007 33.2527 40.7829 33.417C41.2425 34.0358 40.6135 34.8749 40.5018 35.5479C40.4773 35.7828 40.4297 36.1405 40.4267 36.3653C39.8385 37.4086 39.5442 37.7568 39.4677 39.0017C38.6628 39.7923 38.6749 40.0813 38.0582 40.8848C37.3071 41.8632 36.9664 41.8951 36.3586 43.0904C35.9782 43.2979 35.6394 43.4687 35.2979 43.7371C35.0748 43.9124 34.4041 44.7773 34.2372 44.8443C33.4052 45.179 33.0397 45.4855 32.339 45.9808C32.1042 46.1221 32.0786 46.1758 31.9791 46.4214C31.6339 47.2735 30.5475 47.8125 29.6454 47.8025C30.2327 46.8565 30.4888 46.8391 31.5176 46.3435L31.5409 46.2465C31.0403 46.1384 30.0512 46.7826 29.6387 47.083L29.4028 47.8079C28.9376 48.1952 27.5594 48.6727 27.0466 48.2531C27.2939 48.1324 27.7234 47.6462 27.8188 47.6402C28.1329 47.6206 29.1027 47.1401 29.2585 47.1079C28.5532 47.1183 27.4421 47.5856 26.9013 47.3916C26.6912 47.1958 26.759 47.2913 26.6605 46.9965C26.9759 46.8273 28.1768 46.6815 28.5842 46.5802C35.4333 44.879 39.1718 39.9011 40.2931 33.2869Z" fill="#FEFEFE"/>
<path d="M25.694 16.0307C25.6512 15.8018 25.6253 15.5701 25.6167 15.3374C25.5962 14.781 25.527 13.4499 25.9179 13.0305C26.1543 12.9865 26.0595 12.9712 26.2732 13.0918C26.4485 13.3297 26.4865 13.6597 26.5449 13.9542C26.4877 14.19 26.4627 14.4212 26.6323 14.6272C26.5922 14.9698 26.4932 15.5494 26.5662 15.8641C26.8234 15.8711 26.8883 15.4607 27.2806 15.5369C27.5652 15.5922 27.7993 15.7913 28.1286 15.8865C28.576 16.0158 29.2491 16.0167 29.6432 16.1704C30.4086 16.4691 30.8013 16.9828 31.7028 17.0188L32.2835 17.1755C32.416 17.2661 32.7919 17.6209 32.8386 17.6436C34.1441 18.2785 35.072 19.4786 36.3209 20.1233C36.9179 21.1672 37.1442 21.3995 38.0501 22.1994L38.1162 22.3818C38.3204 22.7973 38.5678 23.2957 38.8543 23.6531C39.7095 24.7201 39.5685 25.6738 40.4334 26.7884C40.3559 27.5801 40.7653 28.7203 41.1087 29.4312L40.4011 29.9761C40.2523 29.7429 40.0026 28.1133 39.8876 27.6493C38.3562 21.4757 32.4746 16.5 26.0725 16.2327C25.8464 16.2233 25.838 16.1774 25.694 16.0307Z" fill="#FEFEFE"/>
<path d="M8.81132 33.8365C8.84263 33.5741 8.87017 33.5422 9.02528 33.3394C9.27458 33.2225 9.17022 33.2273 9.41543 33.311C9.61443 33.5374 9.75296 34.4697 9.81251 34.7948C10.7178 39.7342 14.7368 44.4409 19.5505 46.0929C20.1177 46.293 20.6965 46.4591 21.2835 46.5903C21.7389 46.6874 22.9114 46.8317 23.2324 46.9914C23.0396 47.5319 22.8338 47.5337 22.2581 47.631L21.8318 47.5333C21.7573 47.5118 21.5258 47.3467 21.4116 47.2939C20.7511 46.9888 20.5482 46.985 19.8603 47.0122C18.7346 46.1586 18.1847 46.3469 17.0929 45.7016C16.6358 45.4314 15.6172 44.8043 15.2073 44.4929C14.2831 43.791 14.3739 43.5319 13.261 43.037C12.5313 41.6935 12.1395 41.7219 11.4833 40.7366C10.99 39.9959 10.1993 38.2609 9.89936 37.4303C9.81089 37.1852 9.34339 36.2193 9.31307 36.0475C9.15109 35.1291 9.13474 34.7482 8.81132 33.8365Z" fill="#FEFEFE"/>
<path d="M21.8063 24.8585C22.1835 24.8451 22.7142 24.9437 23.0526 25.1231C23.5229 25.3703 23.8697 25.8005 24.0109 26.3115C24.156 26.8385 24.0792 27.4016 23.7983 27.8708C23.4415 28.4732 22.9909 28.7177 22.3397 28.8766C21.0941 28.9588 20.1896 28.6876 19.847 27.2876C19.5296 25.9911 20.608 25.0918 21.8063 24.8585ZM22.3133 27.9516C22.2994 28.1474 22.272 28.1107 22.3547 28.2515C22.7566 28.0105 23.0972 26.9392 23.2112 26.4802C23.2561 26.3024 23.2943 26.1229 23.3256 25.9422C23.0779 25.9311 21.6062 25.7609 21.5679 25.7679C21.0816 25.9441 20.099 26.2748 20.3622 27.0017C20.899 27.2097 21.6474 26.7698 22.3133 27.9516Z" fill="#FDFBFD"/>
<path d="M22.837 14.5606C23.0061 14.9158 23.2217 15.2724 22.9727 15.6265C22.6307 15.6393 20.4316 16.0658 20.1835 16.1671C19.1168 16.6028 19.1869 16.9299 17.8532 17.0005C16.7061 17.7945 16.8458 17.7964 15.5646 18.221C14.7633 19.3031 14.4846 19.2655 13.5209 20.1452C13.4049 20.251 12.8142 21.0235 12.6383 21.2174C12.4649 21.4085 11.7494 22.158 11.6617 22.3046C11.1962 23.0833 11.1744 23.3434 10.5099 24.0212C10.4137 25.1049 9.96573 25.7303 9.62727 26.7293C9.41886 27.3444 9.33586 28.2784 8.94171 28.7858L8.83783 28.6199C8.98855 28.2912 9.21879 27.246 9.21887 26.8795C9.24772 25.9049 9.65013 26.0238 9.99846 25.1567C10.2265 24.589 9.99908 23.9874 10.4374 23.5423C11.0847 23.3319 11.7386 21.8262 11.2972 21.1644L11.6548 21.0834C11.6889 21.3073 11.6605 21.3951 11.7931 21.5337C12.4371 21.5485 13.2948 20.0735 13.2826 19.414L13.0608 19.2112C13.2992 19.0137 13.3873 18.8577 13.5123 18.5856L13.7394 18.7557C13.5818 19.0163 13.4889 19.1478 13.6245 19.4159C14.3329 19.488 15.1577 18.419 15.3974 17.8266C15.4397 17.7218 15.3797 17.655 15.3363 17.5436L15.6474 17.4748L15.7449 17.7993L15.8781 17.8445C16.6352 17.6926 17.6178 16.9476 17.6598 16.1258C17.8299 16.2101 17.8521 16.2223 17.974 16.3668L17.9189 16.5781L18.0092 16.6832C18.7107 16.833 19.9255 16.08 20.1992 15.3487L20.3661 15.4661L20.4201 15.7054C21.0685 16.1289 22.5257 15.3352 22.837 14.5606Z" fill="#FEFEFE" fill-opacity="0.0352941"/>
<path d="M11.5894 26.5049C12.2515 26.3213 12.9545 26.6052 13.302 27.1964C13.6495 27.7876 13.5543 28.5381 13.0702 29.0245C12.9019 29.1936 12.6958 29.3206 12.4689 29.3951C11.8062 29.6127 11.0803 29.3507 10.7106 28.7607C10.341 28.1706 10.4233 27.4051 10.9099 26.9066C11.0968 26.7152 11.3313 26.5766 11.5894 26.5049ZM12.545 28.6467C13.3091 27.5501 12.3831 27.2633 11.4458 27.3075C10.5864 28.2464 11.7742 28.8314 12.545 28.6467Z" fill="#FEFEFE"/>
<path d="M7.80255 33.6736C7.96399 33.4089 8.27183 33.2747 8.54774 33.4549C8.79025 33.6133 8.66584 33.6742 8.81132 33.8365C9.13474 34.7482 9.15109 35.1291 9.31307 36.0475C9.34339 36.2193 9.81089 37.1852 9.89936 37.4303C10.1993 38.2609 10.99 39.9959 11.4833 40.7366C12.1395 41.7219 12.5313 41.6935 13.261 43.037C14.3739 43.5319 14.2831 43.791 15.2073 44.4929C15.6172 44.8043 16.6358 45.4314 17.0929 45.7016C18.1847 46.3469 18.7346 46.1586 19.8603 47.0122C20.5482 46.985 20.7511 46.9888 21.4116 47.2939C21.5258 47.3467 21.7573 47.5118 21.8318 47.5333L21.7506 47.7994C21.4105 47.2078 19.8675 47.1714 19.2676 47.334C19.2642 47.303 19.2247 47.2304 19.2091 47.1974C19.2899 47.082 19.2591 47.1484 19.2584 46.9744C18.8199 46.5348 17.6518 46.267 17.0387 46.181C16.4603 45.5083 15.4278 44.6105 14.4897 45.1127L14.3333 44.7824C14.6467 44.6895 14.6944 44.7041 14.683 44.3966C14.4404 43.9205 13.7368 43.6024 13.2803 43.3458C12.7062 43.0231 11.7532 40.6072 10.8658 41.3107L10.706 40.9267C10.9603 40.8557 11 40.8382 11.083 40.6177C11.0355 40.0275 9.98266 38.4335 9.43647 38.9167C9.44465 38.9303 9.29146 38.3782 9.19721 38.1748C9.42845 38.4099 9.56722 38.6389 9.89735 38.4981C10.1286 37.8762 9.25035 36.3292 8.43505 36.2774L8.46459 36.0303C8.67917 36.0854 8.78338 36.1391 8.98308 36.0553C9.30481 35.4442 8.5887 33.8311 7.80255 33.6736Z" fill="#FEFEFE" fill-opacity="0.0588235"/>
<path d="M16.0422 19.5656C16.4368 19.5899 18.0504 21.4315 18.017 21.848C17.8101 22.0863 17.3966 22.2558 17.1022 22.4014C16.5022 22.0617 15.8574 21.7356 15.2448 21.4159C15.5957 21.9337 16.0441 22.2983 16.3951 22.8124C16.5174 22.9916 16.4351 23.1062 16.3709 23.3217C15.6178 23.3111 14.5951 21.9937 14.0612 21.4263C15.096 20.3886 15.1599 20.5647 16.459 21.2666C16.62 21.3536 16.8164 21.4512 16.9824 21.5365C16.5675 20.9284 16.1134 20.7256 15.8379 20.1071C15.8458 19.7729 15.8392 19.8751 16.0422 19.5656Z" fill="#FDFBFD"/>
<path d="M28.6107 17.2663C30.0728 17.3472 29.7794 18.788 29.7504 19.863C30.0711 19.2638 30.1643 18.6101 30.5247 18.0513C30.6167 17.9086 30.7139 17.9402 30.8983 17.9254L31.0237 18.0382C31.1526 18.6649 30.5063 20.0697 30.2393 20.663C29.954 20.7601 29.5214 20.5158 29.2434 20.3892C29.1635 20.0536 29.1122 18.7076 28.9871 18.6024C28.7838 18.836 28.5297 19.671 28.3559 20.0502C27.0226 20.3396 28.4342 17.6439 28.6107 17.2663Z" fill="#FEFEFE"/>
<path d="M12.7862 23.4395C13.6055 23.5306 13.4974 24.1156 13.7221 24.1702C14.1074 24.2639 14.4836 24.2516 15.0824 24.5093C14.9408 24.835 14.8895 24.9661 14.6809 25.2493C14.2565 25.4007 13.8012 24.8803 13.4062 25.2151L13.4176 25.4179C13.5164 25.649 13.9207 25.8339 14.1574 25.9685C14.188 26.0527 14.1745 26.1643 14.173 26.2607C14.0347 26.4964 14.1171 26.4184 13.8267 26.5363C13.3759 26.5294 11.9112 25.6788 11.4001 25.431C11.6905 24.7681 12.2043 23.8799 12.7862 23.4395Z" fill="#FDFBFD"/>
<path d="M29.153 42.8661C29.7213 43.0429 30.1471 43.4325 30.2417 44.0204C30.4128 45.084 30.0533 45.5656 29.0988 45.7825C27.9463 45.4016 27.8696 44.8272 27.7055 43.743C27.8869 43.5296 28.0935 43.3092 28.2823 43.0996C28.5527 43.0135 28.8745 42.9383 29.153 42.8661ZM29.2787 45.24C29.7495 44.7282 29.5534 44.0811 29.177 43.5489L28.9048 43.409C28.4053 43.9543 28.6962 44.8901 29.2787 45.24Z" fill="#FDFBFD"/>
<path d="M37.0788 30.6044C37.7627 30.6841 39.3658 30.5265 39.7308 30.9812C39.7557 31.2368 39.7666 31.1339 39.6295 31.3998C39.1828 31.7372 38.1666 31.5369 37.5428 31.494C37.5691 31.9966 37.356 32.7859 37.5885 33.0455C37.9056 33.1568 38.2053 33.1433 38.5395 33.1494C38.9772 33.2231 39.5758 33.2396 39.7231 33.721C39.3048 34.2437 37.1711 34.0657 36.7699 33.558C36.7668 33.2109 36.8906 33.1344 37.1369 32.8537L36.9875 32.6102C36.9835 32.1633 36.9451 30.9454 37.0788 30.6044Z" fill="#FDFBFD"/>
<path d="M35.0176 38.1859C35.3388 38.3758 36.2409 40.3778 36.4605 40.8266C36.2982 41.1258 36.1615 41.4455 35.8451 41.5755C35.4511 41.617 35.1258 41.3957 34.763 41.2136C34.444 41.1504 33.3073 40.8141 33.0677 40.6353C33.0441 40.0357 34.9516 40.0386 34.6912 39.0899C34.6052 38.7766 34.8305 38.4443 35.0176 38.1859Z" fill="#FDFBFD"/>
<path d="M25.7873 16.7942C26.013 16.8142 26.2986 16.8431 26.4767 16.9942C26.9399 17.3874 27.706 19.3297 27.3007 19.8026C26.9325 19.8224 26.6622 19.4901 26.4136 19.251C25.463 19.0305 24.9993 19.7481 24.5068 19.4804L24.461 19.3107C24.5565 18.8648 25.5091 17.2729 25.7873 16.7942Z" fill="#FEFEFE"/>
<path d="M21.6884 17.0931C21.77 17.0814 21.8518 17.0712 21.9339 17.0626C22.2201 17.0347 22.2393 17.0757 22.4249 17.2281C22.5366 17.4956 22.9622 19.434 22.9612 19.6883C22.8074 19.8582 22.7703 19.8672 22.5527 19.9459C22.0142 19.7754 22.2387 19.1762 21.8841 18.8959C21.5481 18.9481 21.269 19.0429 20.9472 19.1432C21.1876 19.6292 21.442 19.8446 21.1753 20.3481C19.9964 20.3239 20.2692 18.6802 19.7974 17.7672L19.7812 17.7364C19.9643 17.5455 20.3712 17.4549 20.6406 17.3716C20.7609 17.8806 20.7801 18.1282 20.8189 18.6453C22.3489 18.0232 21.2274 17.9933 21.6609 17.1457L21.6884 17.0931Z" fill="#FDFBFD"/>
<path d="M37.2303 24.651C37.9 24.5703 38.1351 24.9971 38.4999 25.4611C37.8644 26.1968 37.2196 26.9243 36.5655 27.6437L36.3677 27.6524C36.3412 27.5959 36.3201 27.5486 36.2968 27.4902L36.2692 27.4197C36.1242 27.0597 36.2323 26.9078 36.3186 26.5379C36.4782 25.8526 35.0642 25.5379 35.1635 24.9031C35.4672 24.6894 36.8118 24.6704 37.2303 24.651Z" fill="#FDFBFD"/>
<path d="M23.7192 43.4596C24.17 43.4937 24.4845 43.6484 24.8717 43.8491C25.673 45.532 24.3546 47.1569 22.8202 45.8879C22.8525 45.5884 22.804 45.6417 22.9693 45.4294C23.2843 45.384 23.5053 45.742 23.9714 45.8135C24.1861 45.6959 24.1132 45.7664 24.2268 45.4931L24.1766 45.3788C23.5605 45.3029 22.547 45.2936 22.8297 44.2121C22.9322 43.8197 23.359 43.6108 23.7192 43.4596Z" fill="#FDFBFD"/>
<path d="M38.6134 27.1812C38.9999 27.0694 39.394 27.2759 39.1983 27.6803C38.9229 28.2493 36.8141 27.8996 37.2347 29.074C37.4762 29.7484 38.7728 28.8174 39.4953 29.1176C39.6773 29.2773 39.6749 29.4692 39.7071 29.7082C39.6399 29.7328 39.5721 29.7562 39.504 29.7785C38.8404 29.9951 37.8093 30.3124 37.2185 29.9572C36.0485 29.2538 36.2936 27.3683 37.801 27.342C37.9802 27.3388 38.4454 27.2227 38.6134 27.1812Z" fill="#FDFBFD"/>
<path d="M37.1284 34.22C37.4209 34.2273 37.3847 34.1842 37.603 34.3229C37.6668 34.7911 37.2519 35.0457 36.9397 35.5009C36.9105 35.7501 36.8816 35.6841 36.9813 35.8731C37.4979 35.6802 38.1581 33.9926 38.9646 34.8907C39.5806 35.5766 38.9886 36.5145 38.4654 37.0035C38.2536 37.0162 38.1977 37.0072 37.9878 36.9713C37.5549 36.4913 38.5188 36.5533 38.5671 35.5907L38.4775 35.5232C38.1443 35.6786 37.7252 36.2439 37.4877 36.5492C35.7579 37.3297 35.916 34.9275 37.1284 34.22Z" fill="#FDFBFD"/>
<path d="M35.8381 21.6695C36.2387 21.754 37.0413 22.9633 36.9255 23.4593C36.6006 24.851 35.7634 24.3127 35.1479 23.516L35.0843 23.4015C34.6664 23.3927 34.5413 23.9004 33.9254 23.7567C33.7446 23.5472 33.7838 23.6503 33.7824 23.3683C34.0627 22.7643 35.258 22.0413 35.8381 21.6695Z" fill="#FDFBFD"/>
<path d="M31.3343 19.7821C31.5066 19.4211 31.5746 19.1627 31.9845 19.0047C32.8164 18.684 33.916 19.5894 33.6344 20.4684L33.5093 20.5277C33.0659 20.3399 32.6902 19.6291 32.4155 19.5784C32.2615 20.2559 33.3777 20.7438 33.2196 21.3335C32.9928 22.1795 31.9687 22.0361 31.419 21.5744C30.9708 21.198 30.3958 20.6113 31.0564 20.1149C31.4094 20.4545 31.8776 21.5488 32.3352 21.1726C32.3114 20.5928 31.66 20.3213 31.3343 19.7821Z" fill="#FDFBFD"/>
<path d="M6.70118 31.1294C7.19815 31.1432 9.08438 31.2269 9.45007 31.096C9.61066 31.3957 9.67846 31.4066 9.66519 31.6984L9.46966 31.9447C8.7119 31.9026 7.95221 31.9113 7.1956 31.9707L7.12279 32.0685L7.03578 32.0558C7.93848 32.3543 8.76296 32.1057 9.60981 32.3977C9.69767 33.0937 9.15619 33.0401 8.58941 33.0573C8.1725 33.0699 6.69948 33.0692 6.45659 32.7798C6.45281 32.4765 6.48829 32.5338 6.72154 32.2349C6.74036 32.0299 6.59535 31.839 6.4869 31.6464C6.49647 31.3481 6.51228 31.4147 6.70118 31.1294Z" fill="#FEFEFE"/>
<path d="M14.277 38.6979C14.7493 38.6746 14.9656 38.7594 15.4103 38.89C15.7748 39.2969 16.4432 40.122 15.911 40.6087C15.479 40.5818 15.3443 39.8139 14.9093 39.345L14.757 39.4299C14.5452 40.3612 15.7017 40.658 14.7842 41.6078C14.7265 41.6118 14.6688 41.6142 14.611 41.6151C13.7298 41.6325 12.7661 40.6061 13.1033 39.8324C13.2804 39.6935 13.3101 39.6932 13.5372 39.6951C14.037 40.1342 13.5732 40.7336 14.253 40.805C14.4557 40.2487 13.4244 39.5733 14.277 38.6979Z" fill="#FDFBFD"/>
<path d="M10.6574 29.6732L10.9931 29.7101C11.3955 30.2236 10.5358 30.6012 10.7395 31.339C11.0737 31.7879 11.7947 31.8256 12.2424 31.5081C12.3198 31.1955 12.0657 30.322 12.136 29.7603L12.2503 29.6749C12.5374 29.8154 12.7804 30.267 12.9208 30.5413C12.9878 31.0004 12.9753 31.5491 12.7095 31.9471C12.5077 32.2505 12.1902 32.4584 11.8308 32.5226C11.4249 32.5953 11.0067 32.5016 10.671 32.2628C10.3503 32.0347 10.1366 31.6863 10.0792 31.2977C9.98207 30.6341 10.2911 30.1687 10.6574 29.6732Z" fill="#FDFBFD"/>
<path d="M40.4267 36.3653C40.5776 36.4378 40.6072 36.439 40.6897 36.5754C40.5646 37.7185 39.4536 37.2432 39.7945 39.6894L39.7039 39.7833L39.4634 39.5447C38.814 39.5531 38.2977 41.381 38.2762 41.9075L38.1846 41.9653C38.0166 41.7068 38.0974 41.7454 37.8486 41.6754C37.1337 41.9159 36.6693 43.0307 36.6796 43.7592C36.592 43.8221 36.5053 43.8771 36.4291 43.9522C36.4157 43.6491 36.4672 43.6885 36.2997 43.517C35.6594 43.5215 34.7937 44.6566 34.5017 45.1548C34.3502 45.2178 34.363 45.1829 34.3171 45.293C33.7572 45.0525 33.0255 45.7162 32.6034 46.0903L32.339 45.9808C33.0397 45.4855 33.4052 45.179 34.2372 44.8443C34.4041 44.7773 35.0748 43.9124 35.2979 43.7371C35.6394 43.4687 35.9782 43.2979 36.3586 43.0904C36.9664 41.8951 37.3071 41.8632 38.0582 40.8848C38.6749 40.0813 38.6628 39.7923 39.4677 39.0017C39.5442 37.7568 39.8385 37.4086 40.4267 36.3653Z" fill="#FEFEFE" fill-opacity="0.027451"/>
<path d="M12.323 34.8357C14.6997 34.7454 13.8932 38.3567 11.7814 37.6059C11.2097 37.4026 11.0178 36.8672 10.8317 36.35C10.7388 35.9525 10.9237 35.3311 11.3769 35.3226C11.5347 35.5779 11.39 37.9633 13.03 36.4922C13.5586 36.0182 12.4244 35.5102 12.323 34.8357Z" fill="#FDFBFD"/>
<path d="M26.7024 14.6696C27.5035 14.6008 27.5752 15.1859 27.8751 15.0679C29.1116 14.5813 30.1585 15.6622 31.3715 15.9182C31.7133 15.9905 32.4463 16.295 32.7861 16.5041C32.5843 16.8129 32.444 16.6623 32.2723 16.8754C32.001 16.8654 31.8962 16.8306 31.6363 16.7616C31.4445 16.7021 30.8043 16.5093 30.7213 16.4255C29.9676 15.6639 29.6239 15.8374 28.6302 15.774C28.3177 15.7541 27.8349 15.2948 27.5308 15.2024C27.2462 15.1159 27.123 15.3114 26.7989 15.1306C26.7169 14.9255 26.6966 14.8886 26.7024 14.6696Z" fill="#FEFEFE"/>
<path d="M19.2264 17.9014C19.3915 17.9797 19.3431 17.9636 19.453 18.1549C19.364 18.5745 19.0305 18.7286 18.6685 18.972C18.9426 19.4496 19.7007 20.385 19.5054 20.8986C19.2908 21.0697 19.3933 21.0229 19.104 21.06C18.8349 20.9597 18.6611 20.6097 18.4982 20.3553C18.1992 19.9295 18.1326 19.7919 17.9267 19.3232C17.5378 19.4913 17.2986 19.6867 16.9104 19.4639L16.9336 19.3066C17.3085 18.8432 18.6451 18.2072 19.2264 17.9014Z" fill="#FDFBFD"/>
<path d="M35.6217 37.1885C36.0269 37.3013 36.8145 37.9057 37.3711 38.1386C37.6039 38.0786 37.6914 37.8335 37.9429 37.5951C38.2466 37.5362 38.1458 37.5161 38.3892 37.6108C38.4313 37.8718 37.9038 38.6889 37.7291 39.0025C37.5416 39.3414 37.2923 39.8946 36.8825 39.9726L36.8459 39.9358C36.7847 39.7312 36.8854 39.1698 36.9115 38.9051C36.6529 38.6755 35.6733 38.1962 35.1621 37.8157L35.6217 37.1885Z" fill="#FDFBFD"/>
<path d="M40.6945 35.8377C40.8126 35.3457 40.8758 34.8195 41.2818 34.5334L41.3462 34.6248C41.3882 34.7775 41.644 35.4273 41.6337 35.4553C41.3754 36.1627 40.324 39.4211 39.7945 39.6894C39.4536 37.2432 40.5646 37.7185 40.6897 36.5754L40.6945 35.8377Z" fill="#FEFEFE"/>
<path d="M10.8658 41.3107C11.7532 40.6072 12.7062 43.0231 13.2803 43.3458C13.7368 43.6024 14.4404 43.9205 14.683 44.3966C14.6944 44.7041 14.6467 44.6895 14.3333 44.7824C14.2047 44.7536 14.0611 44.6775 13.9385 44.6199L13.2175 44.1105C12.8184 43.7722 12.8099 43.5936 12.5928 43.3767C11.6934 42.4777 11.4664 42.4222 10.8658 41.3107Z" fill="#FEFEFE"/>
<path d="M14.4897 45.1127C15.4278 44.6105 16.4603 45.5083 17.0387 46.181C17.6518 46.267 18.8199 46.5348 19.2584 46.9744C19.2591 47.1484 19.2899 47.082 19.2091 47.1974C18.2303 47.6024 15.1572 45.8235 14.4897 45.1127Z" fill="#FDFBFD"/>
<path d="M32.7861 16.5041C32.9606 16.5237 33.0452 16.6454 33.1779 16.7754L33.1855 16.8903L32.8102 17.0345C32.5387 17.6735 34.4249 18.1323 34.8622 18.21C34.9132 18.2738 34.965 18.3253 35.0303 18.3745L35.019 18.4532L34.8731 18.6202C34.991 19.1776 36.2586 19.8787 36.8116 19.7926L36.908 19.6916C36.8223 19.3879 36.6311 19.2741 36.3818 19.0449L36.4445 18.8211C37.0383 19.2892 37.0999 19.5888 37.5212 20.0273L37.4151 20.2585C37.2069 20.1552 37.0724 20.0581 36.848 20.0849C36.5414 20.5158 37.6421 21.5065 37.9762 21.7397C38.065 21.8014 38.1553 21.8609 38.2471 21.9182L38.0734 22.0363L38.0501 22.1994C37.1442 21.3995 36.9179 21.1672 36.3209 20.1233C35.072 19.4786 34.1441 18.2785 32.8386 17.6436C32.7919 17.6209 32.416 17.2661 32.2835 17.1755L32.2723 16.8754C32.444 16.6623 32.5843 16.8129 32.7861 16.5041Z" fill="#FEFEFE" fill-opacity="0.054902"/>
<path d="M38.1162 22.3818L38.386 22.3035C38.8855 23.4239 39.0271 23.7839 40.1455 24.3893L40.0969 24.471C39.947 24.5507 39.8177 24.5747 39.8006 24.7531C39.715 25.6503 40.4673 26.4438 41.1508 26.8258L40.9743 27.0165C40.2474 27.5959 41.2373 29.0543 41.8261 29.5037C41.6843 29.6885 41.5558 29.8592 41.4226 30.0505C41.0583 29.9756 40.7767 30.0404 40.4119 30.095L40.4011 29.9761L41.1087 29.4312C40.7653 28.7203 40.3559 27.5801 40.4334 26.7884C39.5685 25.6738 39.7095 24.7201 38.8543 23.6531C38.5678 23.2957 38.3204 22.7973 38.1162 22.3818Z" fill="#FEFEFE" fill-opacity="0.0627451"/>
<path d="M21.6032 43.2407C21.7311 43.2321 21.9362 43.2427 22.0709 43.2452C22.6731 43.649 21.9739 45.2097 21.696 45.7357C21.5829 45.9497 21.3658 45.9349 21.1572 45.967C20.779 45.2576 21.2086 44.9852 21.2187 44.1078C21.0079 43.8517 21.1344 44.1415 20.7438 44.0116C20.6455 43.8041 20.6555 43.8957 20.711 43.6667C20.9181 43.4451 21.3064 43.3453 21.6032 43.2407Z" fill="#FDFBFD"/>
<path d="M24.6141 16.087C24.492 15.5112 24.2963 13.4046 24.8253 13.0286C25.0547 13.0362 25.079 13.056 25.2598 13.2002C25.5478 13.7276 25.3876 15.0789 25.4351 15.7974C25.2918 16.1418 25.3775 16.0534 25.0966 16.2787C24.8779 16.3057 24.7516 16.2925 24.6141 16.087Z" fill="#FEFEFE"/>
<path d="M24.6476 46.9037C24.9297 46.8303 24.9817 46.8076 25.2643 46.8963C25.5869 47.4364 25.6296 49.8104 24.9007 50.1113C24.6735 50.0138 24.578 49.8576 24.5147 49.6162C24.5689 48.9815 24.4029 47.242 24.6476 46.9037Z" fill="#FEFEFE"/>
<path d="M23.272 13.3482C23.3398 13.1034 23.3466 13.0315 23.5421 12.8547C23.709 12.783 25.9243 12.7948 26.3035 12.7848C26.6248 12.9826 26.7501 13.186 26.68 13.5859C26.5449 13.7421 26.5867 13.7169 26.5449 13.9542C26.4865 13.6597 26.4485 13.3297 26.2732 13.0918C26.0595 12.9712 26.1543 12.9865 25.9179 13.0305C25.527 13.4499 25.5962 14.781 25.6167 15.3374C25.6253 15.5701 25.6512 15.8018 25.694 16.0307C25.6438 15.8783 25.625 15.7667 25.5129 15.6575L25.4351 15.7974C25.3876 15.0789 25.5478 13.7276 25.2598 13.2002C25.079 13.056 25.0547 13.0362 24.8253 13.0286C24.2963 13.4046 24.492 15.5112 24.6141 16.087L24.4151 15.8817C24.3448 15.9977 24.2769 16.1151 24.2112 16.2338C24.2223 15.6158 24.4378 13.2312 23.8577 13.0134C23.5641 13.1397 23.6297 13.1396 23.4138 13.432L23.272 13.3482Z" fill="#FEFEFE" fill-opacity="0.168627"/>
<path d="M25.6614 46.9599C25.9156 46.8526 25.9796 46.8089 26.2533 46.8552C26.3664 46.9258 26.4339 46.9678 26.5372 47.0516C26.5337 47.4102 26.5181 47.8338 26.5294 48.1864C26.5308 48.7176 26.588 49.5043 26.3717 49.9591L26.1367 50.0734C25.3445 49.9301 25.6437 47.6382 25.6614 46.9599Z" fill="#FEFEFE"/>
<path d="M41.4226 30.0505C41.9986 30.0124 42.9185 29.8664 43.3723 30.1561C43.5425 30.4267 43.5101 30.5226 43.3799 30.8327C42.8096 30.8605 40.9165 30.9172 40.4311 30.8179C40.1551 30.4382 40.1392 30.4631 40.4119 30.095C40.7767 30.0404 41.0583 29.9756 41.4226 30.0505Z" fill="#FEFEFE"/>
<path d="M26.9634 43.3947C27.2545 43.7203 27.3691 45.5734 27.1505 46.0529C26.9147 46.2498 27.0266 46.2056 26.7315 46.2301C26.5279 46.0529 26.5919 46.0271 26.558 45.6684C26.543 45.4283 26.4238 44.7018 26.2596 44.5299C26.0887 44.5384 25.9773 44.5563 25.8085 44.5848L25.6894 44.4691C25.621 43.8692 26.4702 43.4984 26.9634 43.3947Z" fill="#FDFBFD"/>
<path d="M18.6076 42.0441L18.7413 42.0727C18.9042 42.3673 18.7787 42.4642 18.8195 42.8032C18.848 43.0387 19.1402 43.072 19.4088 43.2472L19.4176 43.4028C19.1976 43.4682 19.0072 43.5105 18.7838 43.5599C18.5979 43.7124 18.5502 44.0225 18.4863 44.2659L18.3946 44.3176C18.1835 44.2018 18.0957 44.0209 17.9594 43.8155C17.7651 43.5586 17.5256 43.6165 17.225 43.5983C17.1974 43.5049 17.1784 43.5235 17.2355 43.4511C17.8455 42.6791 17.1885 42.7372 17.318 42.2732C17.5449 42.2135 17.6584 42.3681 17.9677 42.492C18.2113 42.4421 18.4137 42.2183 18.6076 42.0441Z" fill="#FDFBFD"/>
<path d="M40.4529 31.1081C41.1529 31.1441 42.8632 31.2236 43.484 31.0987C43.486 31.263 43.5004 31.6951 43.475 31.837C42.8627 32.0302 41.2389 31.8833 40.3319 31.9617C40.2017 31.5512 40.2526 31.4667 40.4529 31.1081Z" fill="#FEFEFE"/>
<path d="M40.7506 32.2153C41.6129 32.2424 42.6665 32.1794 43.469 32.3483C43.529 32.6909 43.5807 32.6567 43.4515 32.9101C43.0553 33.1144 42.4507 33.0074 41.9649 33.0121C41.2753 32.9727 40.6269 33.2108 40.1553 32.7915C40.2695 32.2982 40.2952 32.3484 40.7506 32.2153Z" fill="#FEFEFE"/>
<path d="M31.7608 41.7572C32.1175 41.7831 32.1421 42.0844 32.6109 42.245C32.8874 42.2607 33.2454 42.029 33.505 41.8925C33.3624 42.167 33.2103 42.4364 33.0486 42.7002C33.1068 43.0188 33.3016 42.9693 33.5088 43.3361C33.3292 43.4981 33.2048 43.4684 32.9279 43.5139C32.5489 43.4197 32.6123 43.9195 32.2361 44.0482C32.0042 43.9444 32.108 43.6425 32.0099 43.5C31.8006 43.1962 31.4331 43.5521 31.3657 43.0642C31.9252 42.5773 31.8736 42.4743 31.7608 41.7572Z" fill="#FDFBFD"/>
<path d="M13.561 22.1202C13.6146 22.1326 13.7949 22.1833 13.8218 22.2089C14.1577 22.5274 15.5956 23.4234 15.7231 23.7958C15.688 24.0589 15.5133 24.2008 15.3294 24.3971L15.1596 24.3829C14.796 24.1105 13.4206 23.0396 13.2316 22.766C13.2176 22.5092 13.3992 22.3331 13.561 22.1202Z" fill="#FDFBFD"/>
<path d="M23.4185 47.0508C23.5177 46.9741 23.6119 46.9196 23.7179 46.8534C23.9552 46.8151 24.0333 46.8717 24.245 46.9722C24.1881 47.4908 24.1969 47.7866 24.213 48.3077C24.2182 48.838 24.3401 49.6695 24.0177 50.0109C23.9109 50.0343 23.7796 50.0726 23.6739 50.0649C23.3891 49.7551 23.4353 49.4122 23.4238 48.9958C23.4474 48.3745 23.4231 47.6806 23.4185 47.0508Z" fill="#FEFEFE"/>
<path d="M23.1818 16.7712C23.5106 16.7707 23.8626 16.7654 24.1125 17.013C23.9767 17.8487 24.193 18.8605 24.0222 19.5316C23.8075 19.7376 23.9078 19.6908 23.6439 19.745L23.4961 19.6378C23.197 19.1139 23.1319 17.3877 23.1818 16.7712Z" fill="#FEFEFE"/>
<path d="M7.88499 51.4606C7.94531 51.5254 8.06787 51.6646 8.12711 51.7188C7.64047 52.6108 5.24369 55.0263 4.28669 55.6846C4.13204 55.791 3.80801 55.5657 3.66817 55.4458C4.172 55.4964 4.11107 55.4827 4.33437 55.0626L4.51632 55.1104C4.96362 54.792 7.834 51.7869 7.88499 51.4606Z" fill="#FEFEFE" fill-opacity="0.92549"/>
<path d="M36.0892 44.9104L36.1275 45.0011C36.17 45.3841 38.0613 47.142 38.4091 47.5437C38.6897 47.8679 39.5591 48.9657 39.9033 49.0531L39.6226 49.1064C39.611 49.1877 39.5953 49.2672 39.5956 49.3485C39.2629 49.0494 38.5809 48.2836 38.2447 47.9132C37.5571 47.1558 36.2745 45.9726 35.7177 45.1503C35.7928 45.0902 35.998 44.9684 36.0892 44.9104Z" fill="#FEFEFE" fill-opacity="0.94902"/>
<path d="M25.2643 46.8963C25.4147 46.948 25.5138 47.0051 25.6614 46.9599C25.6437 47.6382 25.3445 49.9301 26.1367 50.0734L26.3717 49.9591L26.2952 50.3376C25.8551 50.1754 24.2235 50.1803 23.769 50.3037L23.6739 50.0649C23.7796 50.0726 23.9109 50.0343 24.0177 50.0109C24.3401 49.6695 24.2182 48.838 24.213 48.3077C24.2523 48.0821 24.2251 47.9801 24.3653 47.8566C24.5425 48.2033 24.442 49.2105 24.5147 49.6162C24.578 49.8576 24.6735 50.0138 24.9007 50.1113C25.6296 49.8104 25.5869 47.4364 25.2643 46.8963Z" fill="#FEFEFE" fill-opacity="0.172549"/>
<path d="M10.2027 23.2865C10.2917 23.3724 10.3697 23.4383 10.4374 23.5423C9.99908 23.9874 10.2265 24.589 9.99846 25.1567C9.65013 26.0238 9.24772 25.9049 9.21887 26.8795C9.08736 26.7036 9.08151 26.4919 9.03615 26.2617L8.80529 26.1303C8.90117 26.0269 9.1328 25.6823 9.22659 25.5499C9.2866 24.1963 9.38379 24.3193 10.2027 23.2865Z" fill="#FEFEFE" fill-opacity="0.988235"/>
<path d="M14.0638 44.863C14.2028 45.1207 14.202 45.0372 14.1895 45.3057C13.9735 45.7243 10.8586 48.9978 10.3619 49.2211C10.2511 49.1896 10.1857 49.1585 10.0823 49.1127L10.1075 48.9936C10.2528 49.0502 10.176 49.0389 10.3443 49.0079C11.1739 48.0958 13.5567 45.7087 14.0638 44.863Z" fill="#FEFEFE" fill-opacity="0.898039"/>
<path d="M26.6323 14.6272L26.7024 14.6696C26.6966 14.8886 26.7169 14.9255 26.7989 15.1306C27.123 15.3114 27.2462 15.1159 27.5308 15.2024C27.8349 15.2948 28.3177 15.7541 28.6302 15.774C29.6239 15.8374 29.9676 15.6639 30.7213 16.4255C30.8043 16.5093 31.4445 16.7021 31.6363 16.7616L31.7028 17.0188C30.8013 16.9828 30.4086 16.4691 29.6432 16.1704C29.2491 16.0167 28.576 16.0158 28.1286 15.8865C27.7993 15.7913 27.5652 15.5922 27.2806 15.5369C26.8883 15.4607 26.8234 15.8711 26.5662 15.8641C26.4932 15.5494 26.5922 14.9698 26.6323 14.6272Z" fill="#FEFEFE" fill-opacity="0.027451"/>
<path d="M40.9743 27.0165C41.3373 27.3019 41.4315 27.3904 41.7202 27.7496C41.8443 28.3537 42.0686 28.968 41.8261 29.5037C41.2373 29.0543 40.2474 27.5959 40.9743 27.0165Z" fill="#FDFBFD"/>
<path d="M7.80255 33.6736C8.5887 33.8311 9.30481 35.4442 8.98308 36.0553C8.78338 36.1391 8.67917 36.0854 8.46459 36.0303C8.15428 34.9949 7.93946 35.2361 7.80255 33.6736Z" fill="#FEFEFE"/>
<path d="M20.3669 15.4661C21.334 14.6814 21.5784 14.708 22.8378 14.5606C22.5265 15.3352 21.0694 16.1289 20.421 15.7054L20.3669 15.4661Z" fill="#FDFBFD"/>
<path d="M21.7506 47.7994C21.4105 47.2078 19.8675 47.1714 19.2676 47.334C19.2697 48.0162 21.0982 48.5485 21.7506 47.7994Z" fill="#FEFEFE"/>
<path d="M38.2471 21.9182C38.1553 21.8609 38.065 21.8014 37.9762 21.7397C37.6421 21.5065 36.5414 20.5158 36.848 20.0849C37.0724 20.0581 37.2069 20.1552 37.4151 20.2585C37.8271 20.5094 38.5925 21.1873 38.6292 21.6896C38.506 21.8857 38.5045 21.8829 38.2471 21.9182Z" fill="#FEFEFE"/>
<path d="M34.5017 45.1548C34.7937 44.6566 35.6594 43.5215 36.2997 43.517C36.4672 43.6885 36.4157 43.6491 36.4291 43.9522L36.3893 44.0044C36.0163 44.443 35.8945 44.7445 35.3869 45.0959C35.104 45.2838 34.9434 45.4524 34.6057 45.3581L34.5017 45.1548Z" fill="#FEFEFE"/>
<path d="M8.43505 36.2774C9.25035 36.3292 10.1286 37.8762 9.89735 38.4981C9.56722 38.6389 9.42845 38.4099 9.19721 38.1748C8.90417 37.6914 8.56263 36.8251 8.43505 36.2774Z" fill="#FEFEFE"/>
<path d="M38.2762 41.9075C38.2977 41.381 38.814 39.5531 39.4634 39.5447L39.7039 39.7833C39.6202 40.5366 39.0493 41.685 38.2762 41.9075Z" fill="#FEFEFE"/>
<path d="M11.2972 21.1644C11.7386 21.8262 11.0847 23.3319 10.4374 23.5423C10.3697 23.4383 10.2917 23.3724 10.2027 23.2865C10.1296 22.4651 10.7953 21.7322 11.2972 21.1644Z" fill="#FEFEFE"/>
<path d="M40.0969 24.471C40.5142 25.0259 41.2561 25.9634 41.2432 26.6747L41.1508 26.8258C40.4673 26.4438 39.715 25.6503 39.8006 24.7531C39.8177 24.5747 39.947 24.5507 40.0969 24.471Z" fill="#FEFEFE"/>
<path d="M12.5619 19.7661C12.8721 19.4941 12.9097 19.4356 13.2834 19.414C13.2956 20.0736 12.438 21.5486 11.794 21.5337C11.6613 21.3951 11.6898 21.3074 11.6556 21.0834C12.0051 20.4567 12.0826 20.278 12.5619 19.7661Z" fill="#FEFEFE"/>
<path d="M15.3372 17.5437C15.3806 17.655 15.4406 17.7218 15.3982 17.8266C15.1586 18.4191 14.3338 19.4881 13.6254 19.4159C13.4898 19.1478 13.5826 19.0163 13.7403 18.7557C14.0667 18.1217 14.7307 17.8405 15.3372 17.5437Z" fill="#FEFEFE"/>
<path d="M32.6034 46.0903C33.0255 45.7162 33.7572 45.0525 34.3171 45.293C34.1334 46.0066 33.0859 46.8768 32.3793 46.7864C32.1528 46.5116 32.398 46.3308 32.6034 46.0903Z" fill="#FEFEFE"/>
<path d="M17.974 16.3668C18.3509 15.9271 19.6538 15.1047 20.1992 15.3487C19.9255 16.08 18.7107 16.833 18.0092 16.6832L17.9189 16.5781L17.974 16.3668Z" fill="#FEFEFE"/>
<path d="M8.24848 28.1542C8.31258 27.272 8.27955 26.8552 8.80529 26.1303L9.03615 26.2617C9.08151 26.4919 9.08736 26.7036 9.21887 26.8795C9.21879 27.246 8.98855 28.2912 8.83783 28.6199L8.24848 28.1542Z" fill="#FEFEFE"/>
<path d="M38.386 22.3035C39.2851 22.1962 40.2591 23.6214 40.1455 24.3893C39.0271 23.7839 38.8855 23.4239 38.386 22.3035Z" fill="#FEFEFE"/>
<path d="M9.43647 38.9167C9.98266 38.4335 11.0355 40.0275 11.083 40.6177C11 40.8382 10.9603 40.8557 10.706 40.9267C10.0952 40.1466 9.80162 39.8208 9.43647 38.9167Z" fill="#FEFEFE"/>
<path d="M17.6608 16.126C17.6189 16.9477 16.6363 17.6927 15.8792 17.8446L15.746 17.7995L15.6485 17.4749C16.325 16.673 16.695 16.5024 17.6608 16.126Z" fill="#FEFEFE"/>
<path d="M33.1855 16.8903C33.6841 17.0697 34.7575 17.4752 34.9952 17.9627C34.9605 18.1566 34.9997 18.0947 34.8622 18.21C34.4249 18.1323 32.5387 17.6735 32.8102 17.0345L33.1855 16.8903Z" fill="#FEFEFE"/>
<path d="M36.6796 43.7592C36.6693 43.0307 37.1337 41.9159 37.8486 41.6754C38.0974 41.7454 38.0166 41.7068 38.1846 41.9653C37.8904 42.6068 37.4115 43.5682 36.6796 43.7592Z" fill="#FEFEFE"/>
<path d="M13.8244 44.7775L14.0638 44.863C13.5567 45.7087 11.1739 48.0958 10.3443 49.0079C10.176 49.0389 10.2528 49.0502 10.1075 48.9936C10.6008 48.0798 13.0327 46.0168 13.8244 44.7775Z" fill="#FEFEFE" fill-opacity="0.180392"/>
<path d="M35.019 18.4532C35.6509 18.5073 35.9487 18.5961 36.3818 19.0449C36.6311 19.2741 36.8223 19.3879 36.908 19.6916L36.8116 19.7926C36.2586 19.8787 34.991 19.1776 34.8731 18.6202L35.019 18.4532Z" fill="#FEFEFE"/>
<path d="M26.5372 47.0516L26.6605 46.9965C26.759 47.2913 26.6912 47.1958 26.9013 47.3916C27.4421 47.5856 28.5532 47.1183 29.2585 47.1079C29.1027 47.1401 28.1329 47.6206 27.8188 47.6402C27.7234 47.6462 27.2939 48.1324 27.0466 48.2531C26.9268 48.1602 26.6947 48.1867 26.5294 48.1864C26.5181 47.8338 26.5337 47.4102 26.5372 47.0516Z" fill="#FDFBFD" fill-opacity="0.0666667"/>
<path d="M36.1275 45.0011C36.6795 45.1575 39.2816 48.1824 39.8081 48.7875C39.8369 48.8206 39.888 48.9985 39.9033 49.0531C39.5591 48.9657 38.6897 47.8679 38.4091 47.5437C38.0613 47.142 36.17 45.3841 36.1275 45.0011Z" fill="#FEFEFE" fill-opacity="0.137255"/>
<path d="M40.1553 32.7915C40.6269 33.2108 41.2753 32.9727 41.9649 33.0121L41.9196 33.259C41.6593 33.2748 41.3995 33.2565 41.2009 33.4115C41.0749 33.8271 41.347 33.8863 41.2818 34.5334C40.8758 34.8195 40.8126 35.3457 40.6945 35.8377C40.6476 35.7818 40.5469 35.6175 40.5018 35.5479C40.6135 34.8749 41.2425 34.0358 40.7829 33.417C40.5007 33.2527 40.6287 33.2897 40.2931 33.2869C40.3273 33.058 40.2666 32.9882 40.1553 32.7915Z" fill="#FEFEFE" fill-opacity="0.0509804"/>
<path d="M7.88499 51.4606C7.834 51.7869 4.96362 54.792 4.51632 55.1104L4.33437 55.0626C4.67492 54.6033 7.57383 51.5383 7.88499 51.4606Z" fill="#FEFEFE" fill-opacity="0.219608"/>
<path d="M40.3319 31.9617C41.2389 31.8833 42.8627 32.0302 43.475 31.837L43.469 32.3483C42.6665 32.1794 41.6129 32.2424 40.7506 32.2153L40.3319 31.9617Z" fill="#FEFEFE" fill-opacity="0.0823529"/>
<path d="M43.3799 30.8327L43.484 31.0987C42.8632 31.2236 41.1529 31.1441 40.4529 31.1081L40.4311 30.8179C40.9165 30.9172 42.8096 30.8605 43.3799 30.8327Z" fill="#FEFEFE" fill-opacity="0.0431373"/>
<path d="M9.60981 32.3977C8.76296 32.1057 7.93848 32.3543 7.03578 32.0558L7.12279 32.0685L7.1956 31.9707C7.95221 31.9113 8.7119 31.9026 9.46966 31.9447L9.40335 32.1113L9.60981 32.3977Z" fill="#FEFEFE" fill-opacity="0.027451"/>
<path d="M23.2334 46.9913L23.4185 47.0508C23.4231 47.6806 23.4474 48.3745 23.4238 48.9958C23.2729 48.6864 23.3253 48.6546 23.0793 48.5463C23.1097 48.3092 23.173 48.0667 23.0531 47.8667C22.7876 47.7286 22.8057 47.7767 22.4678 47.7824L22.2591 47.6309C22.8347 47.5336 23.0406 47.5319 23.2334 46.9913Z" fill="#777577" fill-opacity="0.105882"/>
<path d="M31.0564 20.1149C31.1532 20.0075 31.2458 19.8965 31.3343 19.7821C31.66 20.3213 32.3114 20.5928 32.3352 21.1726C31.8776 21.5488 31.4094 20.4545 31.0564 20.1149Z" fill="#FDFBFD" fill-opacity="0.0117647"/>
<path d="M41.2818 34.5334C41.347 33.8863 41.0749 33.8271 41.2009 33.4115C41.3995 33.2565 41.6593 33.2748 41.9196 33.259C42.025 33.7906 41.7407 34.2829 41.3462 34.6248L41.2818 34.5334Z" fill="#FEFEFE" fill-opacity="0.980392"/>
<path d="M29.6387 47.083C30.0512 46.7826 31.0403 46.1384 31.5409 46.2465L31.5176 46.3435C30.4888 46.8391 30.2327 46.8565 29.6454 47.8025L29.4028 47.8079L29.6387 47.083Z" fill="#FEFEFE" fill-opacity="0.0509804"/>
<path d="M6.87414 30.988C7.42742 30.752 8.51763 30.842 9.1293 30.9071L9.45007 31.096C9.08438 31.2269 7.19815 31.1432 6.70118 31.1294L6.87414 30.988Z" fill="#FEFEFE" fill-opacity="0.0196078"/>
<path d="M22.4678 47.7824C22.8057 47.7767 22.7876 47.7286 23.0531 47.8667C23.173 48.0667 23.1097 48.3092 23.0793 48.5463C22.7057 48.5162 22.3651 48.5151 22.1422 48.1973C22.233 47.9199 22.2172 47.9943 22.4678 47.7824Z" fill="#FEFEFE"/>
<path d="M23.1535 16.3465C23.3427 16.1871 23.4545 16.2314 23.6498 16.303L23.4931 16.3626C23.7149 16.5768 24.0658 16.3016 24.1799 16.8007L24.1125 17.013C23.8626 16.7654 23.5106 16.7707 23.1818 16.7712C23.2011 16.5654 23.2468 16.4924 23.1535 16.3465Z" fill="#1F1C20" fill-opacity="0.0117647"/>
<path d="M24.245 46.9722C24.3828 47.0069 24.5089 46.9478 24.6476 46.9037C24.4029 47.242 24.5689 48.9815 24.5147 49.6162C24.442 49.2105 24.5425 48.2033 24.3653 47.8566C24.2251 47.9801 24.2523 48.0821 24.213 48.3077C24.1969 47.7866 24.1881 47.4908 24.245 46.9722Z" fill="#FEFEFE" fill-opacity="0.341176"/>
<path d="M35.3869 45.0959C35.8945 44.7445 36.0163 44.443 36.3893 44.0044L36.5045 44.0921C36.5547 44.0795 36.702 44.0378 36.7439 44.038C36.5646 44.2071 36.1113 44.6766 36.0892 44.9104C35.998 44.9684 35.7928 45.0902 35.7177 45.1503L35.3869 45.0959Z" fill="#FEFEFE" fill-opacity="0.0509804"/>
<path d="M13.2167 44.1106L13.9377 44.62L13.8235 44.7777C13.456 44.6182 13.4451 44.4297 12.8922 44.2985L13.2167 44.1106Z" fill="#FEFEFE" fill-opacity="0.129412"/>
<path d="M40.5018 35.5479C40.5469 35.6175 40.6476 35.7818 40.6945 35.8377L40.6897 36.5754C40.6072 36.439 40.5776 36.4378 40.4267 36.3653C40.4297 36.1405 40.4773 35.7828 40.5018 35.5479Z" fill="#FEFEFE" fill-opacity="0.164706"/>
<path d="M31.6363 16.7616C31.8962 16.8306 32.001 16.8654 32.2723 16.8754L32.2835 17.1755L31.7028 17.0188L31.6363 16.7616Z" fill="#FEFEFE" fill-opacity="0.266667"/>
<path d="M12.4592 19.5909C12.6743 19.3847 12.7941 19.3401 13.0608 19.2112L13.2834 19.414C12.9097 19.4356 12.8721 19.4941 12.5619 19.7661L12.4592 19.5909Z" fill="#FEFEFE" fill-opacity="0.32549"/>
</svg>
